<?xml version="1.0" encoding="utf-8"?>
<!-- Generator: Adobe Illustrator 24.3.0, SVG Export Plug-In . SVG Version: 6.00 Build 0)  -->
<svg version="1.1" id="Layer_1" xmlns="http://www.w3.org/2000/svg" xmlns:xlink="http://www.w3.org/1999/xlink" x="0px" y="0px"
	 viewBox="0 0 260.9 76.6" style="enable-background:new 0 0 260.9 76.6;" xml:space="preserve">
<style type="text/css">
	.st0{display:none;fill:none;stroke:#000000;stroke-width:10;stroke-miterlimit:10;}
	.st1{enable-background:new    ;}
	.st2{fill:#CE0202;}
</style>
<circle class="st0" cx="-89.1" cy="72" r="66.9"/>
<g class="st1">
	<path class="st2" d="M46.6,6.7c-0.1,0.1-0.2,0.2-0.3,0.5S46.1,8,46.1,8.7c0,1,0.1,1.9,0.4,2.8v34.7c0,3.6-0.4,7-1,10.3
		c-0.7,3.3-1.9,6.2-3.6,8.7c-1.7,2.5-4,4.6-7,6.1s-6.8,2.3-11.4,2.3h-1.4c-4,0-7.2-0.5-9.7-1.6S8,69.5,6.6,67.9
		c-1.4-1.7-2.3-3.5-2.8-5.5c-0.5-2-0.7-3.9-0.7-5.7c0-1.5,0.2-3,0.6-4.5c0.4-1.4,0.9-2.7,1.7-3.8c0.7-1.1,1.6-2,2.7-2.6
		c1-0.7,2.2-1,3.6-1c1.3,0,2.1,0.3,2.4,1s0.5,1.3,0.5,2c0,1.5-0.3,2.8-0.9,3.8s-1.3,1.9-2,2.7s-1.4,1.5-2,2.3s-0.9,1.7-0.9,2.8
		c0,3.4,1.1,5.8,3.4,7.2c2.2,1.5,5,2.2,8.4,2.2c2.9,0,5.5-0.6,7.6-1.8c2.2-1.2,4-2.7,5.4-4.5c1.4-1.8,2.5-3.8,3.2-5.9
		c0.7-2.1,1-4.1,1-6l-1.6,0.1c-2.5,0-4.7-0.6-6.5-1.7c-1.9-1.2-3.4-2.6-4.6-4.3S23,41.1,22.4,39c-0.6-2-0.9-3.9-0.9-5.7v-3.7
		c0-1.3,0.2-2.9,0.5-4.7s0.8-3.6,1.5-5.6c0.6-1.9,1.4-3.8,2.3-5.7c0.9-1.8,1.9-3.5,2.9-5s2.2-2.7,3.4-3.6c1.2-0.9,2.4-1.4,3.7-1.4
		c0.5,0,1,0.1,1.7,0.3l7.3,0.5c0.5,0.1,1,0.2,1.4,0.5C46.4,5.5,46.6,6,46.6,6.7z M37.6,19.3c0.1-0.6,0.3-1.1,0.4-1.6s0.2-1,0.2-1.7
		c0-0.9-0.2-1.7-0.7-2.5c-0.5-0.7-1.3-1.1-2.5-1.1c-1.5,0-2.8,0.6-3.8,1.9c-1,1.3-1.7,2.8-2.3,4.5c-0.5,1.7-0.9,3.6-1.1,5.4
		c-0.2,1.9-0.3,3.4-0.3,4.6c0,0.9,0.1,2.2,0.2,3.9s0.5,3.4,1,5.1c0.5,1.7,1.3,3.1,2.2,4.4c0.9,1.3,2.2,1.9,3.8,1.9
		c0.1,0,0.5,0,1.2-0.1s1.2-0.2,1.5-0.3V19.3H37.6z"/>
	<path class="st2" d="M70.6,46.5c-1,1.5-1.9,3.1-2.6,4.9c-0.7,1.8-1.2,3.6-1.7,5.5s-0.9,3.8-1.2,5.8c-0.3,1.9-0.6,3.8-1,5.5
		c-0.1,0.4-0.7,0.7-1.6,0.8c-0.9,0.1-1.6,0.2-2,0.2c-1.3,0-2.3-0.1-3.1-0.2c-0.8-0.1-1.4-0.5-1.8-1c-0.4-0.5-0.7-1.3-0.9-2.4
		c-0.2-1.1-0.4-2.5-0.5-4.3l1.4-31.1c0-0.9,0.5-1.4,1.5-1.4c0.3,0,0.8,0.1,1.5,0.2c0.6,0.1,1.3,0.3,2,0.5s1.3,0.5,1.8,0.8
		s0.7,0.7,0.7,1.1v21.3c0.1-0.1,0.2-0.3,0.3-0.8c0.5-1.3,1.1-2.8,1.8-4.7c0.7-1.8,1.5-3.6,2.3-5.3s1.7-3.1,2.7-4.3
		c0.9-1.2,1.9-1.8,2.9-1.8c1.3,0,2.2,0.3,2.9,0.9c0.7,0.6,1.2,1.3,1.5,2.3c0.3,0.9,0.6,1.9,0.6,2.9c0.1,1,0.1,2.1,0.1,3
		c0,0.7-0.1,1.9-0.2,3.5c-0.1,1.6-0.2,4-0.2,7.2c0,1.8,0.2,3.5,0.5,4.9c0.3,1.5,1,2.2,2.1,2.2c0.8,0,1.5-0.3,2.1-1s1.2-1.6,1.7-2.6
		s1-2.2,1.3-3.4s0.6-2.3,0.6-3.4c0.1-1.3,0.6-2,1.6-2c0.6,0,1,0.2,1.3,0.6c0.2,0.4,0.3,0.9,0.3,1.5v0.2c-0.1,1.4-0.3,3-0.8,4.7
		s-1.1,3.4-2,4.9s-2,2.8-3.4,3.9c-1.4,1-3.1,1.6-5.1,1.6c-3.1,0-5.1-1.1-6-3.4c-0.9-2.3-1.3-5.6-1.3-10.1L70.6,46.5z"/>
	<path class="st2" d="M85,50.4c0.1-3.6,0.2-7.2,0.3-10.9s0.3-7.1,0.4-10.3c0-0.6-0.6-0.9-1.7-1.2c-1.1-0.2-2.4-0.4-3.8-0.6
		c-1.4-0.2-2.7-0.5-3.8-1s-1.7-1.2-1.7-2.3c0-0.9,0.9-1.4,2.7-1.6c1.8-0.1,4.5-0.2,8.1-0.2c0.3,0,0.5-0.4,0.6-1.3
		c0.1-0.8,0.2-1.9,0.2-3.2s0.1-2.7,0.1-4.1c0-1.5,0.1-2.8,0.2-4.1c0.1-1.3,0.2-2.4,0.4-3.2s0.4-1.3,0.7-1.3s1,0.1,1.9,0.2
		c0.9,0.1,1.8,0.3,2.8,0.6c1,0.2,1.8,0.5,2.6,0.9c0.7,0.4,1.1,0.7,1.1,1.2l-1.2,13.6c0,0.4,0.4,0.7,1.1,0.9c0.7,0.2,1.7,0.3,2.8,0.3
		c1.2,0,2.4,0.1,3.7,0.1s2.5,0.1,3.7,0.3s2.1,0.5,2.8,1s1.1,1.1,1.1,2c0,0.1-0.1,0.4-0.2,0.7c-0.1,0.3-0.3,0.5-0.5,0.5
		c-0.1,0-0.3-0.1-0.6-0.3c-0.2-0.2-0.9-0.3-1.9-0.3c-0.3,0-1,0-2.3,0.1s-2.6,0.2-4,0.3s-2.7,0.3-3.8,0.5c-1.2,0.2-1.8,0.4-1.9,0.7
		c-0.1,0.1-0.2,1-0.3,2.5s-0.2,3.5-0.3,5.9s-0.2,5.3-0.3,8.4c-0.1,3.2-0.1,6.5-0.1,10c0,1.3,0.1,2.6,0.2,3.9
		c0.1,1.3,0.3,2.4,0.6,3.4s0.6,1.8,1.1,2.5c0.5,0.6,1,0.9,1.6,0.9c0.9,0,1.7-0.4,2.5-1.2c0.8-0.8,1.5-1.8,2.1-3.1s1.2-2.8,1.7-4.5
		s0.9-3.4,1.3-5.1c0.2-1,0.5-1.8,0.7-2.3c0.3-0.5,0.7-0.7,1.3-0.7c0.5,0,0.9,0.2,1.3,0.5c0.4,0.3,0.6,1,0.6,2.1c0,0.7,0,1.2-0.1,1.4
		c-0.2,1.3-0.6,3-1.2,5.2c-0.6,2.2-1.4,4.4-2.4,6.5c-1,2.1-2.3,4-3.7,5.6c-1.5,1.6-3.2,2.4-5.1,2.4c-1.9,0-3.5-0.5-4.9-1.6
		s-2.6-2.6-3.5-4.5s-1.7-4.2-2.1-6.8c-0.5-2.6-0.7-5.4-0.7-8.4v-1H85z"/>
	<path class="st2" d="M136.7,53.2c0,1.7-0.3,3.7-0.9,5.9c-0.6,2.2-1.6,4.2-2.9,6c-1.3,1.9-3,3.4-5.1,4.7c-2.1,1.3-4.5,1.9-7.4,1.9
		c-2.7,0-5-0.5-6.9-1.5s-3.4-2.3-4.7-4c-1.2-1.7-2.1-3.6-2.6-5.9c-0.5-2.3-0.8-4.7-0.8-7.2c0-2.4,0.3-5.1,0.8-8.1
		c0.6-2.9,1.4-5.7,2.6-8.2c1.2-2.5,2.7-4.7,4.5-6.4s4-2.6,6.6-2.6c1.3,0,2.4,0.3,3.6,0.8c1.1,0.5,2.1,1.2,2.9,2s1.5,1.8,2,2.9
		c0.5,1.1,0.8,2.3,0.8,3.5l0.1,1.5c0,1.7-0.3,3.5-0.8,5.5c-0.6,2-1.4,3.8-2.4,5.6c-1,1.7-2.3,3.1-3.9,4.3c-1.5,1.2-3.3,1.7-5.2,1.7
		c-0.3,0-0.8,0-1.3-0.1s-1-0.2-1.5-0.3v3c0,0.5,0.2,1.2,0.5,2.1c0.3,0.9,0.8,1.8,1.4,2.7c0.6,0.9,1.4,1.6,2.5,2.3c1,0.7,2.3,1,3.7,1
		c2,0,3.7-0.4,5-1.2c1.3-0.8,2.4-1.8,3.2-3.1s1.5-2.7,1.9-4.2c0.5-1.6,0.8-3.1,1.1-4.6c0.2-1,0.4-1.6,0.6-2c0.2-0.3,0.6-0.5,1-0.5
		c1,0,1.6,0.6,1.6,1.8L136.7,53.2L136.7,53.2z M124.4,37c0-0.6-0.2-1.2-0.5-1.8s-0.9-0.9-1.7-0.9c-1.3,0-2.3,0.7-3.2,2
		s-1.7,2.8-2.3,4.6c-0.6,1.7-1,3.4-1.3,4.9c-0.3,1.6-0.4,2.6-0.4,3.1v0.3c0,0.6,0.1,1.1,0.2,1.5c0.1,0.4,0.5,0.6,1.1,0.6h0.5
		c1.4,0,2.6-0.5,3.6-1.6c1-1,1.8-2.3,2.4-3.8c0.6-1.5,1-3,1.3-4.5s0.4-2.8,0.4-3.8L124.4,37L124.4,37z"/>
	<path class="st2" d="M163.4,54.6c0,0.5-0.2,1.7-0.5,3.5c-0.3,1.9-0.9,3.8-1.7,5.9c-0.8,2.1-1.9,3.9-3.2,5.5s-3.1,2.4-5.2,2.4
		c-2.2,0-4-0.8-5.3-2.4c-1.3-1.6-2.3-3.5-3-5.7c-0.7-2.2-1.2-4.5-1.4-6.9s-0.3-4.4-0.3-6c0-1.8,0.1-3.6,0.3-5.5
		c0.2-1.8,0.3-3.7,0.4-5.5c0-0.6-0.3-0.9-0.8-1c-0.6-0.1-1.1-0.2-1.6-0.2c-0.8,0-1.4,0.1-1.6,0.3c-0.2,0.2-0.3,0.5-0.4,0.7l-0.4,3.4
		c-0.3,2.2-0.6,4.4-0.9,6.4c-0.3,2.1-0.7,3.9-1,5.4c-0.4,1.6-0.8,2.8-1.4,3.8s-1.1,1.4-1.8,1.4h-0.1c-0.3,0-0.5-0.1-0.8-0.2
		c-0.2-0.1-0.4-0.5-0.4-1c0-0.3,0.1-0.7,0.2-1.3c0.6-2.4,0.9-4.5,1-6.1s0.2-3,0.3-4.3v-0.7c0-0.3,0-0.8,0.1-1.3
		c0-0.5,0.1-1.1,0.1-1.8v-2.7c0-0.8,0-1.6,0-2.4c0-0.8-0.1-1.7-0.2-2.7l-0.3-6.2c0-0.4,0.2-0.8,0.5-1.2c0.3-0.3,0.8-0.7,1.4-0.9
		c0.6-0.3,1.2-0.5,1.8-0.6s1.2-0.2,1.7-0.2c1.2,0,1.8,0.8,1.8,2.3v0.5l-0.1,2.3v0.6c0,0.5,0.1,0.8,0.3,0.9c0.2,0.1,0.6,0.2,1.3,0.4
		h0.3c0.6,0.1,1.5,0.1,2.7,0.2c1.3,0.1,2.5,0.2,3.8,0.4s2.4,0.5,3.3,1c0.9,0.5,1.4,1.1,1.4,1.9c0,0.3-0.1,0.7-0.2,1.2
		c-0.1,0.5-0.3,1-0.5,1.6c-0.2,0.5-0.4,1-0.5,1.4s-0.2,0.7-0.2,0.8c-1.3,4.8-1.9,9.8-1.9,15.1c0,0.4,0,1.2,0.1,2.3s0.2,2.3,0.4,3.5
		c0.2,1.2,0.5,2.2,0.9,3.1c0.4,0.9,0.9,1.4,1.6,1.4c1,0,2-0.6,2.8-1.9c0.8-1.3,1.6-2.8,2.2-4.5c0.6-1.7,1.1-3.4,1.5-5.2
		c0.4-1.7,0.6-3,0.8-3.9c0.1-0.8,0.4-1.2,0.7-1.4s0.6-0.3,0.9-0.3c1,0,1.5,0.6,1.5,1.9c0,0.1,0,0.5-0.1,1.1
		C163.5,53.8,163.5,54.3,163.4,54.6z"/>
	<path class="st2" d="M201.8,57.9c-0.1,1-0.5,2.1-1,3.5c-0.6,1.3-1.3,2.6-2.1,3.8c-0.9,1.2-1.9,2.3-3,3.1s-2.4,1.3-3.8,1.3
		c-2.1,0-3.9-0.8-5.5-2.4c-1.6-1.6-2.5-3.9-2.9-6.8c-0.4,1.1-0.9,2.4-1.5,3.9c-0.6,1.5-1.3,2.8-2.1,4.1s-1.8,2.3-2.9,3.2
		c-1.1,0.9-2.4,1.3-3.8,1.3c-0.4,0-0.7,0-0.9-0.1s-0.4-0.2-0.7-0.3c-0.2-0.1-0.5-0.2-0.8-0.3s-0.8-0.1-1.3-0.1
		c-1.7,0-3.1-0.5-4.2-1.6c-1.2-1.1-2.1-2.5-2.8-4.1c-0.7-1.7-1.2-3.5-1.5-5.5s-0.5-3.9-0.5-5.6c0-4.2,0.2-8.2,0.7-11.9
		c0.5-3.8,1.2-7.1,2.3-10c1-2.9,2.4-5.2,4.1-6.9c1.7-1.7,3.7-2.6,6.1-2.6c1.4,0,2.5,0.1,3.2,0.4c0.7,0.2,1.4,0.5,2,0.8s1.3,0.6,2,1
		s1.8,0.6,3.1,0.8c1.5,0.8,2.5,1.8,3.1,3s1,2.4,1.2,3.7s0.2,2.7,0.2,4.1c-0.1,1.4,0,2.8,0.2,4.2c0,0.1,0.2,0.2,0.5,0.3
		s0.7,0.3,1.1,0.5c0.4,0.2,0.8,0.4,1.1,0.7s0.5,0.7,0.5,1.2V45c-0.7,1.8-1.1,3.4-1.3,4.8c-0.1,1.4-0.2,3.1-0.2,5c0,1,0.1,2,0.2,3.2
		c0.1,1.2,0.3,2.2,0.5,3.2s0.6,1.9,1.1,2.5c0.5,0.7,1.1,1,1.9,1c0.8,0,1.6-0.4,2.3-1.3c0.7-0.8,1.2-1.8,1.7-2.9
		c0.5-1.1,0.8-2.2,1.2-3.3c0.3-1.1,0.5-2,0.6-2.5c0.1-0.8,0.5-1.3,1-1.3c0.3,0,0.7,0.2,1,0.6c0.3,0.4,0.5,1.1,0.5,2
		c0,0.3,0,0.5,0,0.8C202,57.3,201.9,57.6,201.8,57.9z M182.5,40.9c0-0.8-0.1-1.7-0.2-2.7c-0.1-1-0.4-2-0.7-2.9s-0.9-1.7-1.6-2.3
		c-0.7-0.6-1.6-0.9-2.8-0.9c-2,0-3.5,0.9-4.8,2.7c-1.2,1.8-2.2,3.9-2.9,6.3c-0.7,2.4-1.2,4.9-1.4,7.4s-0.3,4.6-0.3,6
		c0,1.1,0.1,2.5,0.2,4c0.1,1.6,0.3,3.1,0.6,4.5c0.3,1.4,0.7,2.6,1.2,3.6s1.2,1.5,2,1.5c2,0,3.6-0.8,4.7-2.4c1.1-1.6,1.9-3.5,2.5-5.9
		c0.6-2.3,1-4.9,1.2-7.5c0.2-2.7,0.5-5.1,0.7-7.4c0.1-1.2,0.5-1.9,0.9-2.3c0.5-0.3,0.7-0.5,0.7-0.7L182.5,40.9L182.5,40.9z"/>
	<path class="st2" d="M229.8,59.9c-1.7,4-3.8,6.9-6.4,8.6s-5.7,2.7-9.3,2.7c-0.4,0-0.7,0-1,0s-0.6,0-1-0.1c-1.7-0.2-3.4-0.8-5-1.6
		c-1.6-0.9-3-2.1-4.2-3.7c-1.2-1.6-2.1-3.5-2.8-5.8s-1-4.9-1-7.8c0-2.8,0.4-5.7,1.1-8.8c0.7-3.1,2.2-5.9,4.5-8.4
		c2-2.2,4.2-4,6.9-5.4c2.6-1.3,5.3-2,8-2c1.3,0,2.5,0.2,3.6,0.6c1.1,0.4,1.7,0.9,1.8,1.4c0.1,0.8,0.2,1.8,0.3,2.9
		c0,1.2,0.1,2.7,0.1,4.6c0,1.6-0.1,2.8-0.4,3.6c-0.2,0.8-0.8,1.2-1.5,1.2c-0.8-0.1-1.4-0.5-1.8-1.3c-0.4-0.8-0.7-1.7-1-2.6
		c-0.3-0.9-0.8-1.8-1.4-2.6c-0.6-0.8-1.5-1.2-2.7-1.3c-1.8,0-3.3,0.7-4.5,2.1c-1.2,1.4-2.1,3-2.8,4.9s-1.1,3.8-1.4,5.7
		c-0.2,1.9-0.4,3.4-0.4,4.4c0,4,0.6,7.5,1.8,10.4c1.2,2.9,3.4,4.5,6.5,4.8l1.2,0.1c2.2,0,3.9-0.5,5.2-1.6c1.3-1.1,2.4-2.3,3.2-3.6
		s1.4-2.5,1.9-3.6s0.9-1.6,1.4-1.6h0.3c0.9,0.1,1.4,0.7,1.4,1.8C230.3,58.3,230.2,59,229.8,59.9z"/>
	<path class="st2" d="M232,50.4c0.1-3.6,0.2-7.2,0.3-10.9s0.3-7.1,0.4-10.3c0-0.6-0.6-0.9-1.7-1.2c-1.1-0.2-2.4-0.4-3.8-0.6
		c-1.4-0.2-2.7-0.5-3.8-1s-1.7-1.2-1.7-2.3c0-0.9,0.9-1.4,2.7-1.6c1.8-0.1,4.5-0.2,8.1-0.2c0.3,0,0.5-0.4,0.6-1.3
		c0.1-0.8,0.2-1.9,0.2-3.2s0.1-2.7,0.1-4.1c0-1.5,0.1-2.8,0.2-4.1c0.1-1.3,0.2-2.4,0.4-3.2s0.4-1.3,0.7-1.3s1,0.1,1.9,0.2
		c0.9,0.1,1.8,0.3,2.8,0.6c1,0.2,1.8,0.5,2.6,0.9c0.7,0.4,1.1,0.7,1.1,1.2l-1.2,13.6c0,0.4,0.4,0.7,1.1,0.9c0.7,0.2,1.7,0.3,2.8,0.3
		c1.2,0,2.4,0.1,3.7,0.1s2.5,0.1,3.7,0.3s2.1,0.5,2.8,1c0.7,0.5,1.1,1.1,1.1,2c0,0.1-0.1,0.4-0.2,0.7c-0.1,0.3-0.3,0.5-0.5,0.5
		c-0.1,0-0.3-0.1-0.6-0.3c-0.2-0.2-0.9-0.3-1.9-0.3c-0.3,0-1,0-2.3,0.1s-2.6,0.2-4,0.3s-2.7,0.3-3.8,0.5c-1.2,0.2-1.8,0.4-1.9,0.7
		c-0.1,0.1-0.2,1-0.3,2.5s-0.2,3.5-0.3,5.9s-0.2,5.3-0.3,8.4c-0.1,3.2-0.1,6.5-0.1,10c0,1.3,0.1,2.6,0.2,3.9
		c0.1,1.3,0.3,2.4,0.6,3.4s0.6,1.8,1.1,2.5c0.5,0.6,1,0.9,1.6,0.9c0.9,0,1.7-0.4,2.5-1.2c0.8-0.8,1.5-1.8,2.1-3.1s1.2-2.8,1.7-4.5
		s0.9-3.4,1.3-5.1c0.2-1,0.5-1.8,0.7-2.3c0.3-0.5,0.7-0.7,1.3-0.7c0.5,0,0.9,0.2,1.3,0.5c0.4,0.3,0.6,1,0.6,2.1c0,0.7,0,1.2-0.1,1.4
		c-0.2,1.3-0.6,3-1.2,5.2c-0.6,2.2-1.4,4.4-2.4,6.5c-1,2.1-2.3,4-3.7,5.6c-1.5,1.6-3.2,2.4-5.1,2.4c-1.9,0-3.5-0.5-4.9-1.6
		s-2.6-2.6-3.5-4.5s-1.7-4.2-2.1-6.8c-0.5-2.6-0.7-5.4-0.7-8.4v-1H232z"/>
</g>
</svg>
