<?xml version="1.0" encoding="utf-8"?>
<!-- Generator: Adobe Illustrator 24.3.0, SVG Export Plug-In . SVG Version: 6.00 Build 0)  -->
<svg version="1.1" xmlns="http://www.w3.org/2000/svg" xmlns:xlink="http://www.w3.org/1999/xlink" x="0px" y="0px"
	 viewBox="0 0 781.3 467.7" style="enable-background:new 0 0 781.3 467.7;" xml:space="preserve">
<style type="text/css">
	.st0{display:none;fill:none;stroke:#000000;stroke-width:10;stroke-miterlimit:10;}
	.st1{fill:none;stroke:#000000;stroke-width:10;stroke-miterlimit:10;}
	.st2{fill:#CE0202;}
	.st3{font-family:'Billabong';}
	.st4{font-size:104.7247px;}
	.st5{font-size:61.6716px;}
	.st6{font-size:99.512px;}
	.st7{fill:none;stroke:#F90606;stroke-width:5;stroke-miterlimit:10;}
</style>
<g id="trace">
	<circle class="st0" cx="377.1" cy="239.5" r="66.9"/>
	<path class="st1" d="M120.3,14.2c2-0.1,3.9-0.2,5.9-0.2c11.3-0.1,22.7,0.1,34,0.2c31,0.2,61.9,0.4,92.9,0.5
		c26.1,0.1,52.1,0.3,78.2,0.4c18.7,0.1,35.4,1.8,52.4,10.2C398.9,33,412.4,44,423.2,57c2.9,3.5,5.7,7.2,8.2,11.1
		c11.2,17.1,17.7,36.5,17.7,57c0,9.1,0,18.1,0,27.2c0,28.5,0,57,0,85.4c0,27.4,0,54.9,0,82.3c0,9.2,0,18.4,0,27.6
		c0,19.7-7.3,38.7-18.4,54.8c-10.9,15.7-25.3,29-41.7,38.7c-10.7,6.3-22.4,11.4-34.9,13c-4.5,0.6-9.1,0.5-13.7,0.5
		c-8.3,0-16.6,0-24.9,0c-12.4,0-24.9,0-37.3,0c-14.6,0-29.2,0-43.7,0c-14.7,0-29.4,0-44.1,0c-12.8,0-25.7,0-38.5,0
		c-22.8,0-46.4,2.2-68.2-6.7c-18.8-7.6-35.4-20.6-48.4-36c-14.4-17-24.8-38-25.9-60.8c-0.5-11,0-22.1,0-33.1c0-29.4,0-58.9,0-88.3
		c0-28.4,0-56.9,0-85.3c0-22.9-0.9-44,10-64.8C28.9,61.4,43.5,46,60.4,34.4C78.2,22.2,98.8,15.3,120.3,14.2z"/>
	<path class="st1" d="M145.1,58.1c1.6-0.1,3.2-0.1,4.8-0.1c9.3-0.1,18.5,0.1,27.8,0.2c25.3,0.1,50.5,0.3,75.8,0.4
		c21.3,0.1,42.5,0.2,63.8,0.4c15.2,0.1,28.9,1.5,42.7,8.4c12.4,6.2,23.4,15.2,32.3,25.8c2.4,2.9,4.6,5.9,6.7,9
		c9.1,14,14.5,29.8,14.5,46.5c0,7.4,0,14.8,0,22.2c0,23.2,0,46.5,0,69.7c0,22.4,0,44.8,0,67.2c0,7.5,0,15,0,22.6
		c0,16.1-5.9,31.6-15,44.7c-8.9,12.8-20.7,23.7-34.1,31.6c-8.7,5.2-18.3,9.3-28.5,10.6c-3.7,0.5-7.4,0.4-11.2,0.4
		c-6.8,0-13.5,0-20.3,0c-10.2,0-20.3,0-30.5,0c-11.9,0-23.8,0-35.7,0c-12,0-24,0-36,0c-10.5,0-20.9,0-31.4,0
		c-18.6,0-37.9,1.8-55.6-5.4c-15.3-6.2-28.8-16.8-39.5-29.4c-11.8-13.9-20.3-31-21.1-49.6c-0.4-8.9,0-18,0-27c0-24,0-48.1,0-72.1
		c0-23.2,0-46.4,0-69.6c0-18.7-0.7-35.9,8.1-52.9c7.7-14.8,19.6-27.4,33.4-36.8C110.7,64.7,127.5,59.1,145.1,58.1z"/>
	<path class="st1" d="M155.5,85.7c1.4-0.1,2.7-0.1,4.1-0.1c7.9-0.1,15.7,0.1,23.6,0.1c21.5,0.1,42.9,0.2,64.4,0.4
		c18.1,0.1,36.1,0.2,54.2,0.3c12.9,0.1,24.6,1.2,36.3,7.1c10.5,5.3,19.9,12.9,27.4,21.9c2,2.4,3.9,5,5.7,7.7
		c7.8,11.9,12.3,25.3,12.3,39.5c0,6.3,0,12.6,0,18.8c0,19.7,0,39.5,0,59.2c0,19,0,38,0,57c0,6.4,0,12.8,0,19.2
		c0,13.7-5,26.8-12.8,37.9c-7.5,10.9-17.6,20.1-28.9,26.8c-7.4,4.4-15.6,7.9-24.2,9c-3.1,0.4-6.3,0.3-9.5,0.3c-5.7,0-11.5,0-17.2,0
		c-8.6,0-17.2,0-25.9,0c-10.1,0-20.2,0-30.3,0c-10.2,0-20.4,0-30.6,0c-8.9,0-17.8,0-26.7,0c-15.8,0-32.2,1.5-47.2-4.6
		c-13-5.3-24.5-14.3-33.5-25c-10-11.8-17.2-26.3-17.9-42.1c-0.3-7.6,0-15.3,0-22.9c0-20.4,0-40.8,0-61.2c0-19.7,0-39.4,0-59.1
		c0-15.9-0.6-30.5,6.9-44.9c6.5-12.6,16.7-23.3,28.3-31.3C126.3,91.3,140.6,86.5,155.5,85.7z"/>
	<circle class="st1" cx="330.9" cy="140.7" r="17.9"/>
	<circle class="st1" cx="233.3" cy="248.8" r="94.4"/>
	<text transform="matrix(1 0 0 1 473.054 236.8254)" class="st2 st3 st4">Interact</text>
	<text transform="matrix(0.9978 6.626000e-02 -6.626000e-02 0.9978 570.7985 292.8449)" class="st3 st5">for</text>
	<text transform="matrix(1 0 0 1 469.3899 376.6198)" class="st3 st6">Instagram</text>
</g>
<g id="message">
	<path class="st7" d="M281.8,220.5l-57.1,33.7l10.6,50.7c0.1,0.4,0.6,0.4,0.8,0.1l46.5-83.8C282.8,220.7,282.2,220.2,281.8,220.5z"
		/>
	<path class="st7" d="M281.8,220.5l-57.1,33.7l-39.3-33.7c-0.3-0.2-0.1-0.7,0.3-0.7l95.9-0.3C282,219.5,282.2,220.2,281.8,220.5z"/>
	<circle class="st7" cx="281.4" cy="220.7" r="1.2"/>
</g>
</svg>
