<?xml version="1.0" encoding="utf-8"?>
<!-- Generator: Adobe Illustrator 24.3.0, SVG Export Plug-In . SVG Version: 6.00 Build 0)  -->
<svg version="1.1" id="Layer_1" xmlns="http://www.w3.org/2000/svg" xmlns:xlink="http://www.w3.org/1999/xlink" x="0px" y="0px"
	 viewBox="0 0 796 467.7" style="enable-background:new 0 0 796 467.7;" xml:space="preserve">
<style type="text/css">
	.st0{display:none;fill:none;stroke:#000000;stroke-width:10;stroke-miterlimit:10;}
	.st1{enable-background:new    ;}
	.st2{fill:#CE0202;}
	.st3{fill:#F90606;}
</style>
<circle class="st0" cx="383.1" cy="239.5" r="66.9"/>
<g>
	<path d="M135.1,459.8c-15.8,0-31.9-1-47.3-7.3c-18.6-7.5-36-20.5-50.3-37.4c-11.6-13.7-25.7-35.9-27.1-63.8
		c-0.3-7.5-0.2-15.1-0.1-22.4c0.1-3.6,0.1-7.3,0.1-10.9V144.4c0-1.6,0-3.2,0-4.9C10.3,118,10.3,97.7,21,77.3
		c9.5-18.1,24.2-34.4,42.6-47C82,17.6,103.6,10.4,126,9.2l0.3,0c2-0.1,3.8-0.2,5.9-0.2c8.5-0.1,17.2,0,25.6,0.1
		c2.8,0,5.6,0.1,8.4,0.1l1,0c30.1,0.2,61.2,0.4,91.8,0.5c13.1,0,26.1,0.1,39.2,0.2c13,0.1,26,0.1,39,0.2
		c17.3,0.1,35.9,1.5,54.6,10.7c15.5,7.9,29.7,19.3,41.1,33c3.4,4.1,6.2,7.8,8.6,11.6c12.1,18.5,18.5,39.1,18.5,59.7v222.5
		c0,19.4-6.7,39.3-19.3,57.6c-11.2,16.2-26.2,30.1-43.3,40.2c-13.1,7.7-25.1,12.2-36.8,13.7c-4.2,0.6-8.5,0.6-12.6,0.5l-26.6,0
		H157.9c-3.7,0-7.6,0.1-11.3,0.1C142.8,459.8,139,459.8,135.1,459.8z M126.6,19.2c-20.6,1.1-40.4,7.7-57.3,19.3
		C52.2,50.2,38.5,65.2,29.8,81.9c-9.6,18.2-9.5,36.5-9.4,57.6c0,1.6,0,3.2,0,4.9V318c0,3.7-0.1,7.5-0.1,11.1
		c-0.1,7.2-0.2,14.6,0.1,21.8c1.2,25.1,14.1,45.3,24.7,57.8c13.3,15.7,29.3,27.7,46.5,34.6c17.3,7.1,36.4,6.8,54.9,6.5
		c3.7-0.1,7.6-0.1,11.4-0.1l190.2,0c4,0,7.7,0,11.3-0.5c10.4-1.3,21.2-5.4,33-12.4c15.8-9.4,29.7-22.2,40.1-37.2
		c11.5-16.6,17.5-34.6,17.5-51.9V125.1c0-18.6-5.8-37.4-16.9-54.3c-2.2-3.4-4.8-6.9-7.9-10.6c-10.5-12.7-23.6-23.2-37.9-30.4
		c-15.9-7.9-31.6-9.6-50.2-9.7c-13,0-26-0.1-39-0.2c-13.1-0.1-26.1-0.2-39.2-0.2c-30.7-0.1-61.8-0.3-91.9-0.5l-1,0
		c-2.8,0-5.6-0.1-8.5-0.1c-8.4-0.1-17-0.2-25.5-0.1c-1.8,0-3.6,0.1-5.4,0.2L126.6,19.2z"/>
</g>
<g>
	<path d="M158,422.9c-13,0-26.1-0.8-38.7-6c-15.2-6.2-29.6-16.8-41.4-30.8c-13.8-16.3-21.5-34.4-22.3-52.6
		c-0.3-6.1-0.2-12.3-0.1-18.3c0-3,0.1-6,0.1-8.9l0-145.5c0-17.7-0.1-34.4,8.7-51.4c7.8-15,19.9-28.3,35-38.6
		c15-10.5,32.8-16.6,51.5-17.7c1.8-0.1,3.5-0.1,5.1-0.1c7-0.1,14,0,20.9,0.1c2.3,0,4.7,0.1,7,0.1c12.6,0,25.3,0.1,38,0.2
		c12.6,0.1,25.2,0.1,37.8,0.2c20.9,0.1,42.5,0.2,63.8,0.4c14.2,0.1,29.5,1.2,44.9,8.9c12.6,6.3,24.3,15.7,33.9,27.1
		c2.4,2.9,4.7,5.9,7,9.4c10.2,15.7,15.4,32.3,15.4,49.3v181.7c0,16.1-5.5,32.6-15.9,47.6c-9.3,13.3-21.6,24.8-35.7,33.1
		c-10.5,6.3-20.5,10-30.4,11.3c-3.5,0.5-6.9,0.5-10.2,0.4l-21.9,0H176.8c-3.1,0-6.2,0.1-9.2,0.1C164.4,422.8,161.2,422.9,158,422.9z
		 M161.2,63c-1.7,0-3.5,0-5.2,0c-1.6,0-3.1,0-4.5,0.1l0,0c-16.8,1-32.9,6.5-46.4,15.9c-13.8,9.4-24.8,21.5-31.8,35
		c-7.6,14.7-7.6,29.6-7.5,46.7c0,1.3,0,2.6,0,3.9v141.7c0,3,0,6.1-0.1,9.1c-0.1,5.8-0.2,11.9,0.1,17.7c0.9,20.1,11.3,36.4,19.9,46.6
		c10.8,12.7,23.8,22.4,37.6,28c13.8,5.6,29.3,5.4,44.3,5.1c3.1,0,6.3-0.1,9.4-0.1l155.5,0c3.1,0,6.1,0,8.9-0.4
		c8.5-1.1,17.2-4.3,26.6-9.9c12.9-7.6,24.1-18,32.6-30.2c9.2-13.3,14.1-27.8,14.1-41.8V148.7c0-15.1-4.6-29.8-13.7-43.8
		c-2.1-3.1-4.2-6-6.4-8.5c-8.7-10.3-19.3-18.8-30.7-24.5c-12.8-6.4-25.4-7.8-40.5-7.9c-21.3-0.2-42.9-0.3-63.8-0.4
		c-12.6,0-25.2-0.1-37.8-0.2c-12.7-0.1-25.3-0.2-38-0.2c-2.4,0-4.7-0.1-7.1-0.1C171.6,63,166.4,63,161.2,63z"/>
</g>
<g>
	<path d="M167.6,396c-11.1,0-22.4-0.7-33.3-5.1c-13.2-5.4-25.4-14.5-35.4-26.4c-11.8-13.9-18.4-29.5-19.1-45.1
		c-0.2-5.2-0.1-10.5-0.1-15.6c0-2.5,0.1-5,0.1-7.5l0-123.6c0-15.1-0.1-29.4,7.5-43.9c6.5-12.7,16.9-24.1,29.9-33.1
		c13-8.9,28.2-14,44-14.9c1.6-0.1,2.9-0.1,4.4-0.1c4.7-0.1,9.5,0,14.2,0c3.1,0,6.3,0.1,9.4,0.1c21,0.1,42.7,0.2,64.4,0.4l54.2,0.3
		c14.3,0.1,26.3,1.5,38.5,7.6c10.9,5.5,21,13.5,29,23.2c2,2.4,4,5.1,6,8.1c8.7,13.3,13.1,27.5,13.1,42.3v154.2
		c0,13.9-4.7,28-13.7,40.8c-7.7,11.2-18.3,21-30.4,28.2c-9,5.3-17.8,8.6-26.1,9.7c-2.9,0.4-5.8,0.4-8.6,0.3l-1.6,0H183.4
		c-2.6,0-5.2,0-7.8,0.1C173,395.9,170.3,396,167.6,396z M170.3,90.6c-1.6,0-3.1,0-4.7,0c-1.4,0-2.6,0-3.8,0.1l-0.1,0
		c-14,0.8-27.5,5.3-38.9,13.1c-11.6,8-20.9,18.2-26.7,29.5c-6.4,12.3-6.4,24.8-6.3,39.3l0,3.3v120.3c0,2.6,0,5.1-0.1,7.7
		c-0.1,5-0.1,10.1,0.1,15c0.7,16.9,9.5,30.6,16.7,39.1c9,10.7,19.9,18.8,31.6,23.6c11.6,4.7,24.1,4.5,37.4,4.3
		c2.6,0,5.3-0.1,7.9-0.1l132.3,0c2.6,0,5,0,7.2-0.3c7-0.9,14.5-3.7,22.3-8.3c10.9-6.5,20.4-15.2,27.3-25.3
		c7.8-11.1,11.9-23.2,11.9-35.1V162.6c0-12.8-3.9-25.1-11.5-36.8c-1.8-2.7-3.6-5.1-5.4-7.2c-7.2-8.6-16.1-15.7-25.8-20.6
		c-10.5-5.3-21.2-6.5-34.1-6.6l-54.2-0.3c-21.7-0.2-43.4-0.3-64.4-0.4c-3.2,0-6.3,0-9.5-0.1C176.6,90.6,173.5,90.6,170.3,90.6z"/>
</g>
<g>
	<path d="M336.9,163.6c-12.6,0-22.9-10.3-22.9-22.9c0-12.6,10.3-22.9,22.9-22.9s22.9,10.3,22.9,22.9
		C359.8,153.3,349.5,163.6,336.9,163.6z M336.9,127.8c-7.1,0-12.9,5.8-12.9,12.9c0,7.1,5.8,12.9,12.9,12.9s12.9-5.8,12.9-12.9
		C349.8,133.6,344,127.8,336.9,127.8z"/>
</g>
<g>
	<path d="M239.3,348.2c-54.8,0-99.4-44.6-99.4-99.4c0-54.8,44.6-99.4,99.4-99.4c54.8,0,99.4,44.6,99.4,99.4
		C338.7,303.6,294.1,348.2,239.3,348.2z M239.3,159.4c-49.3,0-89.4,40.1-89.4,89.4c0,49.3,40.1,89.4,89.4,89.4s89.4-40.1,89.4-89.4
		C328.7,199.5,288.6,159.4,239.3,159.4z"/>
</g>
<g class="st1">
	<path class="st2" d="M518.8,174.2c-0.1,0.1-0.2,0.2-0.3,0.5c-0.1,0.3-0.2,0.8-0.2,1.5c0,1,0.1,1.9,0.4,2.8v34.7c0,3.6-0.4,7-1,10.3
		c-0.7,3.3-1.9,6.2-3.6,8.7c-1.7,2.5-4,4.6-7,6.1c-3,1.5-6.8,2.3-11.4,2.3h-1.4c-4,0-7.2-0.5-9.7-1.6c-2.5-1.1-4.4-2.5-5.8-4.1
		c-1.4-1.7-2.3-3.5-2.8-5.5c-0.5-2-0.7-3.9-0.7-5.7c0-1.5,0.2-3,0.6-4.5c0.4-1.4,0.9-2.7,1.7-3.8c0.7-1.1,1.6-2,2.7-2.6
		c1-0.7,2.2-1,3.6-1c1.3,0,2.1,0.3,2.4,1c0.3,0.7,0.5,1.3,0.5,2c0,1.5-0.3,2.8-0.9,3.8c-0.6,1-1.3,1.9-2,2.7c-0.7,0.8-1.4,1.5-2,2.3
		c-0.6,0.8-0.9,1.7-0.9,2.8c0,3.4,1.1,5.8,3.4,7.2c2.2,1.5,5,2.2,8.4,2.2c2.9,0,5.5-0.6,7.6-1.8c2.2-1.2,4-2.7,5.4-4.5
		c1.4-1.8,2.5-3.8,3.2-5.9c0.7-2.1,1-4.1,1-6l-1.6,0.1c-2.5,0-4.7-0.6-6.5-1.7c-1.9-1.2-3.4-2.6-4.6-4.3c-1.2-1.7-2.1-3.6-2.7-5.7
		c-0.6-2-0.9-3.9-0.9-5.7v-3.7c0-1.3,0.2-2.9,0.5-4.7c0.3-1.8,0.8-3.6,1.5-5.6c0.6-1.9,1.4-3.8,2.3-5.7c0.9-1.8,1.9-3.5,2.9-5
		c1-1.5,2.2-2.7,3.4-3.6c1.2-0.9,2.4-1.4,3.7-1.4c0.5,0,1,0.1,1.7,0.3l7.3,0.5c0.5,0.1,1,0.2,1.4,0.5
		C518.6,173,518.8,173.5,518.8,174.2z M509.8,186.8c0.1-0.6,0.3-1.1,0.4-1.6c0.1-0.5,0.2-1,0.2-1.7c0-0.9-0.2-1.7-0.7-2.5
		c-0.5-0.7-1.3-1.1-2.5-1.1c-1.5,0-2.8,0.6-3.8,1.9c-1,1.3-1.7,2.8-2.3,4.5c-0.5,1.7-0.9,3.6-1.1,5.4c-0.2,1.9-0.3,3.4-0.3,4.6
		c0,0.9,0.1,2.2,0.2,3.9c0.1,1.7,0.5,3.4,1,5.1c0.5,1.7,1.3,3.1,2.2,4.4c0.9,1.3,2.2,1.9,3.8,1.9c0.1,0,0.5,0,1.2-0.1
		c0.7-0.1,1.2-0.2,1.5-0.3V186.8z"/>
	<path class="st2" d="M542.8,214c-1,1.5-1.9,3.1-2.6,4.9c-0.7,1.8-1.2,3.6-1.7,5.5c-0.5,1.9-0.9,3.8-1.2,5.8c-0.3,1.9-0.6,3.8-1,5.5
		c-0.1,0.4-0.7,0.7-1.6,0.8c-0.9,0.1-1.6,0.2-2,0.2c-1.3,0-2.3-0.1-3.1-0.2c-0.8-0.1-1.4-0.5-1.8-1c-0.4-0.5-0.7-1.3-0.9-2.4
		c-0.2-1.1-0.4-2.5-0.5-4.3l1.4-31.1c0-0.9,0.5-1.4,1.5-1.4c0.3,0,0.8,0.1,1.5,0.2c0.6,0.1,1.3,0.3,2,0.5c0.7,0.2,1.3,0.5,1.8,0.8
		c0.5,0.3,0.7,0.7,0.7,1.1v21.3c0.1-0.1,0.2-0.3,0.3-0.8c0.5-1.3,1.1-2.8,1.8-4.7c0.7-1.8,1.5-3.6,2.3-5.3c0.8-1.7,1.7-3.1,2.7-4.3
		c0.9-1.2,1.9-1.8,2.9-1.8c1.3,0,2.2,0.3,2.9,0.9c0.7,0.6,1.2,1.3,1.5,2.3c0.3,0.9,0.6,1.9,0.6,2.9c0.1,1,0.1,2.1,0.1,3
		c0,0.7-0.1,1.9-0.2,3.5c-0.1,1.6-0.2,4-0.2,7.2c0,1.8,0.2,3.5,0.5,4.9c0.3,1.5,1,2.2,2.1,2.2c0.8,0,1.5-0.3,2.1-1
		c0.6-0.7,1.2-1.6,1.7-2.6c0.5-1,1-2.2,1.3-3.4c0.3-1.2,0.6-2.3,0.6-3.4c0.1-1.3,0.6-2,1.6-2c0.6,0,1,0.2,1.3,0.6
		c0.2,0.4,0.3,0.9,0.3,1.5v0.2c-0.1,1.4-0.3,3-0.8,4.7c-0.5,1.7-1.1,3.4-2,4.9c-0.9,1.5-2,2.8-3.4,3.9c-1.4,1-3.1,1.6-5.1,1.6
		c-3.1,0-5.1-1.1-6-3.4c-0.9-2.3-1.3-5.6-1.3-10.1L542.8,214z"/>
	<path class="st2" d="M557.2,217.9c0.1-3.6,0.2-7.2,0.3-10.9c0.1-3.7,0.3-7.1,0.4-10.3c0-0.6-0.6-0.9-1.7-1.2
		c-1.1-0.2-2.4-0.4-3.8-0.6c-1.4-0.2-2.7-0.5-3.8-1c-1.1-0.5-1.7-1.2-1.7-2.3c0-0.9,0.9-1.4,2.7-1.6c1.8-0.1,4.5-0.2,8.1-0.2
		c0.3,0,0.5-0.4,0.6-1.3c0.1-0.8,0.2-1.9,0.2-3.2c0-1.3,0.1-2.7,0.1-4.1c0-1.5,0.1-2.8,0.2-4.1c0.1-1.3,0.2-2.4,0.4-3.2
		c0.2-0.8,0.4-1.3,0.7-1.3c0.3,0,1,0.1,1.9,0.2c0.9,0.1,1.8,0.3,2.8,0.6c1,0.2,1.8,0.5,2.6,0.9c0.7,0.4,1.1,0.7,1.1,1.2l-1.2,13.6
		c0,0.4,0.4,0.7,1.1,0.9c0.7,0.2,1.7,0.3,2.8,0.3c1.2,0,2.4,0.1,3.7,0.1c1.3,0,2.5,0.1,3.7,0.3c1.2,0.2,2.1,0.5,2.8,1
		c0.7,0.5,1.1,1.1,1.1,2c0,0.1-0.1,0.4-0.2,0.7c-0.1,0.3-0.3,0.5-0.5,0.5c-0.1,0-0.3-0.1-0.6-0.3c-0.2-0.2-0.9-0.3-1.9-0.3
		c-0.3,0-1,0-2.3,0.1c-1.3,0.1-2.6,0.2-4,0.3c-1.4,0.1-2.7,0.3-3.8,0.5c-1.2,0.2-1.8,0.4-1.9,0.7c-0.1,0.1-0.2,1-0.3,2.5
		c-0.1,1.5-0.2,3.5-0.3,5.9c-0.1,2.4-0.2,5.3-0.3,8.4c-0.1,3.2-0.1,6.5-0.1,10c0,1.3,0.1,2.6,0.2,3.9c0.1,1.3,0.3,2.4,0.6,3.4
		c0.3,1,0.6,1.8,1.1,2.5c0.5,0.6,1,0.9,1.6,0.9c0.9,0,1.7-0.4,2.5-1.2c0.8-0.8,1.5-1.8,2.1-3.1c0.6-1.3,1.2-2.8,1.7-4.5
		c0.5-1.7,0.9-3.4,1.3-5.1c0.2-1,0.5-1.8,0.7-2.3c0.3-0.5,0.7-0.7,1.3-0.7c0.5,0,0.9,0.2,1.3,0.5c0.4,0.3,0.6,1,0.6,2.1
		c0,0.7,0,1.2-0.1,1.4c-0.2,1.3-0.6,3-1.2,5.2c-0.6,2.2-1.4,4.4-2.4,6.5c-1,2.1-2.3,4-3.7,5.6c-1.5,1.6-3.2,2.4-5.1,2.4
		c-1.9,0-3.5-0.5-4.9-1.6c-1.4-1.1-2.6-2.6-3.5-4.5c-0.9-1.9-1.7-4.2-2.1-6.8c-0.5-2.6-0.7-5.4-0.7-8.4V217.9z"/>
	<path class="st2" d="M608.9,220.7c0,1.7-0.3,3.7-0.9,5.9c-0.6,2.2-1.6,4.2-2.9,6c-1.3,1.9-3,3.4-5.1,4.7c-2.1,1.3-4.5,1.9-7.4,1.9
		c-2.7,0-5-0.5-6.9-1.5s-3.4-2.3-4.7-4c-1.2-1.7-2.1-3.6-2.6-5.9c-0.5-2.3-0.8-4.7-0.8-7.2c0-2.4,0.3-5.1,0.8-8.1
		c0.6-2.9,1.4-5.7,2.6-8.2c1.2-2.5,2.7-4.7,4.5-6.4c1.8-1.7,4-2.6,6.6-2.6c1.3,0,2.4,0.3,3.6,0.8c1.1,0.5,2.1,1.2,2.9,2
		s1.5,1.8,2,2.9c0.5,1.1,0.8,2.3,0.8,3.5l0.1,1.5c0,1.7-0.3,3.5-0.8,5.5c-0.6,2-1.4,3.8-2.4,5.6c-1,1.7-2.3,3.1-3.9,4.3
		c-1.5,1.2-3.3,1.7-5.2,1.7c-0.3,0-0.8,0-1.3-0.1c-0.5-0.1-1-0.2-1.5-0.3v3c0,0.5,0.2,1.2,0.5,2.1c0.3,0.9,0.8,1.8,1.4,2.7
		c0.6,0.9,1.4,1.6,2.5,2.3c1,0.7,2.3,1,3.7,1c2,0,3.7-0.4,5-1.2c1.3-0.8,2.4-1.8,3.2-3.1s1.5-2.7,1.9-4.2c0.5-1.6,0.8-3.1,1.1-4.6
		c0.2-1,0.4-1.6,0.6-2c0.2-0.3,0.6-0.5,1-0.5c1,0,1.6,0.6,1.6,1.8V220.7z M596.6,204.5c0-0.6-0.2-1.2-0.5-1.8
		c-0.3-0.6-0.9-0.9-1.7-0.9c-1.3,0-2.3,0.7-3.2,2c-0.9,1.3-1.7,2.8-2.3,4.6c-0.6,1.7-1,3.4-1.3,4.9c-0.3,1.6-0.4,2.6-0.4,3.1v0.3
		c0,0.6,0.1,1.1,0.2,1.5c0.1,0.4,0.5,0.6,1.1,0.6h0.5c1.4,0,2.6-0.5,3.6-1.6c1-1,1.8-2.3,2.4-3.8c0.6-1.5,1-3,1.3-4.5
		c0.3-1.5,0.4-2.8,0.4-3.8V204.5z"/>
	<path class="st2" d="M635.6,222.1c0,0.5-0.2,1.7-0.5,3.5c-0.3,1.9-0.9,3.8-1.7,5.9c-0.8,2.1-1.9,3.9-3.2,5.5s-3.1,2.4-5.2,2.4
		c-2.2,0-4-0.8-5.3-2.4c-1.3-1.6-2.3-3.5-3-5.7c-0.7-2.2-1.2-4.5-1.4-6.9c-0.2-2.4-0.3-4.4-0.3-6c0-1.8,0.1-3.6,0.3-5.5
		c0.2-1.8,0.3-3.7,0.4-5.5c0-0.6-0.3-0.9-0.8-1c-0.6-0.1-1.1-0.2-1.6-0.2c-0.8,0-1.4,0.1-1.6,0.3c-0.2,0.2-0.3,0.5-0.4,0.7l-0.4,3.4
		c-0.3,2.2-0.6,4.4-0.9,6.4c-0.3,2.1-0.7,3.9-1,5.4c-0.4,1.6-0.8,2.8-1.4,3.8s-1.1,1.4-1.8,1.4h-0.1c-0.3,0-0.5-0.1-0.8-0.2
		c-0.2-0.1-0.4-0.5-0.4-1c0-0.3,0.1-0.7,0.2-1.3c0.6-2.4,0.9-4.5,1-6.1c0.1-1.6,0.2-3,0.3-4.3V214c0-0.3,0-0.8,0.1-1.3
		c0-0.5,0.1-1.1,0.1-1.8v-2.7c0-0.8,0-1.6,0-2.4c0-0.8-0.1-1.7-0.2-2.7l-0.3-6.2c0-0.4,0.2-0.8,0.5-1.2c0.3-0.3,0.8-0.7,1.4-0.9
		c0.6-0.3,1.2-0.5,1.8-0.6c0.6-0.1,1.2-0.2,1.7-0.2c1.2,0,1.8,0.8,1.8,2.3v0.5l-0.1,2.3v0.6c0,0.5,0.1,0.8,0.3,0.9
		c0.2,0.1,0.6,0.2,1.3,0.4h0.3c0.6,0.1,1.5,0.1,2.7,0.2c1.3,0.1,2.5,0.2,3.8,0.4c1.3,0.2,2.4,0.5,3.3,1c0.9,0.5,1.4,1.1,1.4,1.9
		c0,0.3-0.1,0.7-0.2,1.2c-0.1,0.5-0.3,1-0.5,1.6c-0.2,0.5-0.4,1-0.5,1.4c-0.1,0.4-0.2,0.7-0.2,0.8c-1.3,4.8-1.9,9.8-1.9,15.1
		c0,0.4,0,1.2,0.1,2.3c0.1,1.1,0.2,2.3,0.4,3.5c0.2,1.2,0.5,2.2,0.9,3.1c0.4,0.9,0.9,1.4,1.6,1.4c1,0,2-0.6,2.8-1.9
		c0.8-1.3,1.6-2.8,2.2-4.5c0.6-1.7,1.1-3.4,1.5-5.2c0.4-1.7,0.6-3,0.8-3.9c0.1-0.8,0.4-1.2,0.7-1.4c0.3-0.2,0.6-0.3,0.9-0.3
		c1,0,1.5,0.6,1.5,1.9c0,0.1,0,0.5-0.1,1.1C635.7,221.3,635.7,221.8,635.6,222.1z"/>
	<path class="st2" d="M674,225.4c-0.1,1-0.5,2.1-1,3.5c-0.6,1.3-1.3,2.6-2.1,3.8c-0.9,1.2-1.9,2.3-3,3.1s-2.4,1.3-3.8,1.3
		c-2.1,0-3.9-0.8-5.5-2.4c-1.6-1.6-2.5-3.9-2.9-6.8c-0.4,1.1-0.9,2.4-1.5,3.9c-0.6,1.5-1.3,2.8-2.1,4.1c-0.8,1.3-1.8,2.3-2.9,3.2
		c-1.1,0.9-2.4,1.3-3.8,1.3c-0.4,0-0.7,0-0.9-0.1c-0.2-0.1-0.4-0.2-0.7-0.3c-0.2-0.1-0.5-0.2-0.8-0.3c-0.3-0.1-0.8-0.1-1.3-0.1
		c-1.7,0-3.1-0.5-4.2-1.6c-1.2-1.1-2.1-2.5-2.8-4.1c-0.7-1.7-1.2-3.5-1.5-5.5c-0.3-2-0.5-3.9-0.5-5.6c0-4.2,0.2-8.2,0.7-11.9
		c0.5-3.8,1.2-7.1,2.3-10c1-2.9,2.4-5.2,4.1-6.9c1.7-1.7,3.7-2.6,6.1-2.6c1.4,0,2.5,0.1,3.2,0.4c0.7,0.2,1.4,0.5,2,0.8
		c0.6,0.3,1.3,0.6,2,1c0.7,0.4,1.8,0.6,3.1,0.8c1.5,0.8,2.5,1.8,3.1,3c0.6,1.2,1,2.4,1.2,3.7c0.2,1.3,0.2,2.7,0.2,4.1
		c-0.1,1.4,0,2.8,0.2,4.2c0,0.1,0.2,0.2,0.5,0.3c0.3,0.1,0.7,0.3,1.1,0.5c0.4,0.2,0.8,0.4,1.1,0.7c0.3,0.3,0.5,0.7,0.5,1.2v0.4
		c-0.7,1.8-1.1,3.4-1.3,4.8c-0.1,1.4-0.2,3.1-0.2,5c0,1,0.1,2,0.2,3.2c0.1,1.2,0.3,2.2,0.5,3.2c0.2,1,0.6,1.9,1.1,2.5
		c0.5,0.7,1.1,1,1.9,1c0.8,0,1.6-0.4,2.3-1.3c0.7-0.8,1.2-1.8,1.7-2.9c0.5-1.1,0.8-2.2,1.2-3.3c0.3-1.1,0.5-2,0.6-2.5
		c0.1-0.8,0.5-1.3,1-1.3c0.3,0,0.7,0.2,1,0.6c0.3,0.4,0.5,1.1,0.5,2c0,0.3,0,0.5,0,0.8C674.2,224.8,674.1,225.1,674,225.4z
		 M654.7,208.4c0-0.8-0.1-1.7-0.2-2.7c-0.1-1-0.4-2-0.7-2.9c-0.3-0.9-0.9-1.7-1.6-2.3c-0.7-0.6-1.6-0.9-2.8-0.9
		c-2,0-3.5,0.9-4.8,2.7c-1.2,1.8-2.2,3.9-2.9,6.3c-0.7,2.4-1.2,4.9-1.4,7.4c-0.2,2.5-0.3,4.6-0.3,6c0,1.1,0.1,2.5,0.2,4
		c0.1,1.6,0.3,3.1,0.6,4.5c0.3,1.4,0.7,2.6,1.2,3.6c0.5,1,1.2,1.5,2,1.5c2,0,3.6-0.8,4.7-2.4c1.1-1.6,1.9-3.5,2.5-5.9
		c0.6-2.3,1-4.9,1.2-7.5c0.2-2.7,0.5-5.1,0.7-7.4c0.1-1.2,0.5-1.9,0.9-2.3c0.5-0.3,0.7-0.5,0.7-0.7V208.4z"/>
	<path class="st2" d="M702,227.4c-1.7,4-3.8,6.9-6.4,8.6s-5.7,2.7-9.3,2.7c-0.4,0-0.7,0-1,0s-0.6,0-1-0.1c-1.7-0.2-3.4-0.8-5-1.6
		c-1.6-0.9-3-2.1-4.2-3.7c-1.2-1.6-2.1-3.5-2.8-5.8c-0.7-2.3-1-4.9-1-7.8c0-2.8,0.4-5.7,1.1-8.8c0.7-3.1,2.2-5.9,4.5-8.4
		c2-2.2,4.2-4,6.9-5.4c2.6-1.3,5.3-2,8-2c1.3,0,2.5,0.2,3.6,0.6c1.1,0.4,1.7,0.9,1.8,1.4c0.1,0.8,0.2,1.8,0.3,2.9
		c0,1.2,0.1,2.7,0.1,4.6c0,1.6-0.1,2.8-0.4,3.6c-0.2,0.8-0.8,1.2-1.5,1.2c-0.8-0.1-1.4-0.5-1.8-1.3c-0.4-0.8-0.7-1.7-1-2.6
		c-0.3-0.9-0.8-1.8-1.4-2.6c-0.6-0.8-1.5-1.2-2.7-1.3c-1.8,0-3.3,0.7-4.5,2.1c-1.2,1.4-2.1,3-2.8,4.9c-0.7,1.9-1.1,3.8-1.4,5.7
		c-0.2,1.9-0.4,3.4-0.4,4.4c0,4,0.6,7.5,1.8,10.4c1.2,2.9,3.4,4.5,6.5,4.8l1.2,0.1c2.2,0,3.9-0.5,5.2-1.6c1.3-1.1,2.4-2.3,3.2-3.6
		c0.8-1.3,1.4-2.5,1.9-3.6c0.5-1.1,0.9-1.6,1.4-1.6h0.3c0.9,0.1,1.4,0.7,1.4,1.8C702.5,225.8,702.4,226.5,702,227.4z"/>
	<path class="st2" d="M704.2,217.9c0.1-3.6,0.2-7.2,0.3-10.9c0.1-3.7,0.3-7.1,0.4-10.3c0-0.6-0.6-0.9-1.7-1.2
		c-1.1-0.2-2.4-0.4-3.8-0.6c-1.4-0.2-2.7-0.5-3.8-1c-1.1-0.5-1.7-1.2-1.7-2.3c0-0.9,0.9-1.4,2.7-1.6c1.8-0.1,4.5-0.2,8.1-0.2
		c0.3,0,0.5-0.4,0.6-1.3c0.1-0.8,0.2-1.9,0.2-3.2c0-1.3,0.1-2.7,0.1-4.1c0-1.5,0.1-2.8,0.2-4.1c0.1-1.3,0.2-2.4,0.4-3.2
		c0.2-0.8,0.4-1.3,0.7-1.3c0.3,0,1,0.1,1.9,0.2c0.9,0.1,1.8,0.3,2.8,0.6c1,0.2,1.8,0.5,2.6,0.9c0.7,0.4,1.1,0.7,1.1,1.2l-1.2,13.6
		c0,0.4,0.4,0.7,1.1,0.9c0.7,0.2,1.7,0.3,2.8,0.3c1.2,0,2.4,0.1,3.7,0.1c1.3,0,2.5,0.1,3.7,0.3c1.2,0.2,2.1,0.5,2.8,1
		c0.7,0.5,1.1,1.1,1.1,2c0,0.1-0.1,0.4-0.2,0.7c-0.1,0.3-0.3,0.5-0.5,0.5c-0.1,0-0.3-0.1-0.6-0.3c-0.2-0.2-0.9-0.3-1.9-0.3
		c-0.3,0-1,0-2.3,0.1c-1.3,0.1-2.6,0.2-4,0.3c-1.4,0.1-2.7,0.3-3.8,0.5c-1.2,0.2-1.8,0.4-1.9,0.7c-0.1,0.1-0.2,1-0.3,2.5
		c-0.1,1.5-0.2,3.5-0.3,5.9c-0.1,2.4-0.2,5.3-0.3,8.4c-0.1,3.2-0.1,6.5-0.1,10c0,1.3,0.1,2.6,0.2,3.9c0.1,1.3,0.3,2.4,0.6,3.4
		c0.3,1,0.6,1.8,1.1,2.5c0.5,0.6,1,0.9,1.6,0.9c0.9,0,1.7-0.4,2.5-1.2c0.8-0.8,1.5-1.8,2.1-3.1c0.6-1.3,1.2-2.8,1.7-4.5
		c0.5-1.7,0.9-3.4,1.3-5.1c0.2-1,0.5-1.8,0.7-2.3c0.3-0.5,0.7-0.7,1.3-0.7c0.5,0,0.9,0.2,1.3,0.5c0.4,0.3,0.6,1,0.6,2.1
		c0,0.7,0,1.2-0.1,1.4c-0.2,1.3-0.6,3-1.2,5.2c-0.6,2.2-1.4,4.4-2.4,6.5c-1,2.1-2.3,4-3.7,5.6c-1.5,1.6-3.2,2.4-5.1,2.4
		c-1.9,0-3.5-0.5-4.9-1.6c-1.4-1.1-2.6-2.6-3.5-4.5c-0.9-1.9-1.7-4.2-2.1-6.8c-0.5-2.6-0.7-5.4-0.7-8.4V217.9z"/>
</g>
<g class="st1">
	<path d="M593,276.7c-0.2,0.6-0.6,1.2-1.1,1.8c-0.5,0.7-1.1,1.3-1.8,1.9c0.4,0.5,0.7,1.2,1,1.9c0.2,0.8,0.4,1.6,0.5,2.4
		s0.1,1.8,0.1,2.6c0,0.9-0.1,1.7-0.1,2.6c0,0.2-0.1,0.8-0.2,1.9c-0.1,1-0.3,2.3-0.6,3.7c-0.3,1.4-0.6,2.9-1,4.4
		c-0.4,1.6-0.9,3-1.5,4.3c-0.6,1.3-1.2,2.4-1.9,3.2c-0.7,0.8-1.5,1.2-2.4,1.2c-0.4,0-0.8-0.1-1.3-0.4c-0.5-0.2-0.9-0.5-1.4-0.8
		c-0.5-0.3-0.9-0.6-1.3-1c-0.4-0.4-0.7-0.8-0.8-1.2c-0.3-0.7-0.5-1.9-0.6-3.7c-0.1-1.7,0-4.1,0.2-7c0.1-1.6,0.3-3.3,0.5-5
		s0.5-3.7,0.8-5.9c-0.3-0.1-0.6-0.2-0.9-0.4c-0.3-0.1-0.7-0.3-1-0.5c-0.3-0.2-0.6-0.5-0.8-0.8c-0.2-0.3-0.3-0.7-0.3-1.1
		c0-0.5,0.2-0.9,0.4-1.2c0.2-0.3,0.6-0.6,0.9-0.7c0.4-0.2,0.8-0.3,1.3-0.4c0.5-0.1,1-0.2,1.4-0.3c0.2-0.9,0.6-2.1,1.1-3.7
		c0.5-1.6,1-3.2,1.6-5.1c0.5-1.8,1-3.7,1.4-5.5c0.4-1.8,0.7-3.5,0.8-4.9c0-0.7,0-1.4,0-2c-0.1-0.6-0.3-1.2-0.7-1.8
		c0.4-0.2,0.9-0.3,1.5-0.4c0.6-0.1,1.3-0.1,2.1-0.1c0.3,0,0.6,0.1,1,0.2c0.4,0.1,0.7,0.3,1.1,0.6c0.3,0.2,0.6,0.5,0.8,0.9
		c0.2,0.3,0.3,0.7,0.3,1.1c-0.1,1.1-0.3,2.2-0.8,3.3c-0.4,1.1-0.9,2.4-1.3,3.8c-0.2,0.7-0.4,1.5-0.7,2.2c-0.3,0.7-0.6,1.6-0.9,2.6
		c-0.4,1-0.8,2.2-1.2,3.5c-0.5,1.4-1,3.1-1.7,5.1c0.5,0,1-0.1,1.4-0.2c0.4-0.1,0.9-0.1,1.4-0.2c0.5-0.1,1.2-0.2,1.9-0.4
		C590.9,277.1,591.8,276.9,593,276.7z M588.5,287.7c0-0.1,0-0.4,0-1c0-0.6,0-1.2-0.1-1.9c-0.1-0.7-0.2-1.3-0.4-1.8s-0.4-0.8-0.7-0.9
		c-0.1,0-0.3,0-0.6,0.1c-0.3,0.1-0.6,0.2-0.9,0.3l-1.3,0.5c-0.4,1.6-0.7,3.6-1,6.1c-0.3,2.5-0.7,5.7-1,9.7c0,0.1,0,0.4,0,1
		s0,1.2,0,1.9c0,0.7,0.1,1.3,0.2,1.9c0.1,0.6,0.4,0.9,0.7,0.9c0.5,0,1-0.3,1.4-0.9c0.5-0.6,0.9-1.4,1.2-2.3c0.4-0.9,0.7-2,1-3.1
		c0.3-1.1,0.5-2.2,0.7-3.2s0.3-1.8,0.4-2.5c0.1-0.7,0.2-1.1,0.2-1.2L588.5,287.7z"/>
	<path d="M614.6,277.7c0.2-0.3,0.5-0.4,0.9-0.4c0.2,0,0.3,0.1,0.4,0.4c0.1,0.2,0.1,0.5,0.1,0.6c-0.1,1.3-0.5,2.4-1.1,3.4
		s-1.2,1.8-1.8,2.5c-0.4,0.4-0.7,0.8-1.2,1.2c-0.4,0.3-0.8,0.7-1.3,1c-0.1,0.7-0.2,1.2-0.2,1.4c0,0.3-0.1,0.5-0.1,0.6
		c-0.1,0.6-0.4,1.4-0.8,2.3c-0.4,0.9-0.9,1.8-1.6,2.7c-0.7,0.9-1.4,1.6-2.3,2.2c-0.9,0.6-1.9,0.8-3,0.8c-0.4,0-0.8-0.1-1.3-0.2
		s-0.9-0.3-1.4-0.4c-0.5-0.2-0.9-0.4-1.4-0.6c-0.4-0.2-0.8-0.4-1.1-0.7c-1-0.6-1.8-1.4-2.4-2.2c-0.6-0.8-1.1-1.7-1.3-2.6
		c-0.3-0.9-0.5-1.8-0.5-2.7c-0.1-0.9-0.1-1.8,0-2.7c0.1-1.5,0.4-3,0.8-4.5s0.9-2.9,1.4-4.3c0.5-1.4,1.1-2.6,1.8-3.6
		c0.6-1.1,1.3-1.9,1.8-2.5c0.6-0.5,1.2-0.9,1.9-1.1c0.7-0.2,1.3-0.3,1.8-0.2c0.7,0,1.3,0.3,1.9,0.6c0.6,0.4,1.2,0.8,1.8,1.4
		c0.6,0.5,1.2,1.1,1.7,1.8s1.1,1.3,1.6,2c0.4,0.5,0.6,1.2,0.8,2.2c0.1,1,0.2,2,0.3,3.1c0,0.6,0.1,1.2,0.1,1.9c0,0.7,0,1.3-0.1,2
		c0.6-0.4,1.2-0.9,1.6-1.5c0.4-0.5,0.7-1,1-1.5s0.5-0.9,0.6-1.3C614.2,278.3,614.4,278,614.6,277.7z M606.6,287.5
		c-0.5,0.3-1.2,0.5-2.1,0.6c-0.9,0.1-1.6,0.1-2.2,0.1c-1.1-0.1-2-0.2-2.5-0.4c-0.6-0.2-1.2-0.6-1.9-1.1l-0.1,1.3
		c0,0.5,0,0.9,0.1,1.4c0.1,0.5,0.3,1,0.5,1.4c0.2,0.4,0.6,0.8,1.1,1.1s1.1,0.5,1.8,0.5c0.9,0.1,1.7-0.1,2.3-0.4
		c0.7-0.3,1.2-0.7,1.6-1.2c0.4-0.5,0.8-1.1,1-1.7C606.5,288.6,606.6,288,606.6,287.5z M607.3,281.4c0-0.6,0-1.3,0-2
		s-0.1-1.6-0.1-2.5c-0.1-0.8-0.2-1.6-0.5-2.3c-0.2-0.7-0.5-1.3-0.9-1.8c-0.4-0.5-0.9-0.8-1.5-0.8c-0.6,0-1.2,0.2-1.8,0.6
		c-0.6,0.5-1.2,1.1-1.7,1.8c-0.5,0.8-0.9,1.6-1.3,2.6c-0.3,1-0.5,1.9-0.6,2.9c-0.1,1.6,0.1,2.9,0.7,3.7c0.6,0.8,1.7,1.3,3.3,1.4
		c1.2,0.1,2.2,0,3-0.4c0.8-0.3,1.2-0.6,1.2-0.8l0.1-1.2C607.3,282.3,607.3,282,607.3,281.4z"/>
	<path d="M630.9,287.7c0,0.3-0.2,1-0.4,2c-0.3,1.1-0.7,2.2-1.2,3.4c-0.6,1.2-1.3,2.2-2.1,3.1c-0.9,0.9-1.9,1.3-3.1,1.2
		c-1.3-0.1-2.3-0.6-3-1.6c-0.7-1-1.2-2.1-1.6-3.4s-0.5-2.7-0.5-4.1c0-1.4,0-2.6,0-3.6c0.1-1.1,0.2-2.1,0.4-3.2s0.3-2.2,0.5-3.2
		c0-0.3-0.1-0.5-0.5-0.6c-0.3-0.1-0.6-0.2-0.9-0.2c-0.5,0-0.8,0-0.9,0.1s-0.2,0.3-0.3,0.4l-0.4,2c-0.3,1.3-0.5,2.6-0.8,3.8
		c-0.3,1.2-0.5,2.2-0.8,3.2c-0.3,0.9-0.6,1.6-0.9,2.2c-0.3,0.5-0.7,0.8-1.1,0.8l-0.1,0c-0.2,0-0.3-0.1-0.5-0.2s-0.2-0.3-0.2-0.6
		c0-0.2,0.1-0.4,0.2-0.7c0.4-1.4,0.7-2.6,0.9-3.5c0.1-0.9,0.3-1.8,0.4-2.5l0-0.4c0-0.2,0-0.5,0.1-0.7c0-0.3,0.1-0.6,0.1-1l0.1-1.6
		c0-0.5,0.1-0.9,0.1-1.4c0-0.5,0-1,0-1.6l0.1-3.6c0-0.2,0.1-0.5,0.4-0.7c0.2-0.2,0.5-0.4,0.8-0.5c0.3-0.1,0.7-0.2,1.1-0.3
		c0.4-0.1,0.7-0.1,1-0.1c0.7,0,1,0.5,1,1.4l0,0.3l-0.2,1.3l0,0.4c0,0.3,0,0.5,0.1,0.5c0.1,0.1,0.4,0.2,0.7,0.3l0.2,0
		c0.3,0.1,0.9,0.1,1.6,0.2c0.7,0.1,1.5,0.2,2.2,0.4c0.7,0.2,1.4,0.4,1.9,0.7c0.5,0.3,0.8,0.7,0.8,1.2c0,0.2-0.1,0.4-0.2,0.7
		c-0.1,0.3-0.2,0.6-0.4,0.9c-0.1,0.3-0.3,0.6-0.4,0.8c-0.1,0.2-0.2,0.4-0.2,0.5c-0.9,2.8-1.5,5.7-1.7,8.8c0,0.2,0,0.7,0,1.4
		c0,0.7,0,1.3,0.1,2s0.2,1.3,0.4,1.9c0.2,0.6,0.5,0.8,0.9,0.9c0.6,0,1.2-0.3,1.7-1c0.5-0.7,1-1.6,1.5-2.6c0.4-1,0.8-2,1.1-3
		c0.3-1,0.5-1.8,0.6-2.2c0.1-0.4,0.3-0.7,0.5-0.8c0.2-0.1,0.4-0.1,0.5-0.1c0.6,0,0.8,0.4,0.8,1.2c0,0.1,0,0.3-0.1,0.6
		C631,287.3,631,287.6,630.9,287.7z"/>
</g>
<g class="st1">
	<path d="M513.2,317.1c-0.1,0.1-0.1,0.2-0.2,0.5c-0.1,0.3-0.1,0.7-0.1,1.4c0,0.9,0.1,1.8,0.4,2.7v32.9c0,3.4-0.3,6.6-1,9.8
		c-0.7,3.1-1.8,5.9-3.4,8.3c-1.6,2.4-3.8,4.3-6.7,5.8c-2.8,1.4-6.4,2.1-10.8,2.1H490c-3.8,0-6.9-0.5-9.2-1.5c-2.4-1-4.2-2.3-5.5-3.9
		c-1.3-1.6-2.2-3.3-2.7-5.2c-0.5-1.9-0.7-3.7-0.7-5.4c0-1.5,0.2-2.9,0.5-4.2c0.4-1.4,0.9-2.6,1.6-3.6c0.7-1,1.5-1.9,2.5-2.5
		c1-0.6,2.1-0.9,3.4-0.9c1.2,0,2,0.3,2.3,0.9c0.3,0.6,0.5,1.3,0.5,1.9c0,1.5-0.3,2.7-0.9,3.6c-0.6,1-1.2,1.8-1.9,2.5
		c-0.7,0.7-1.3,1.5-1.9,2.2c-0.6,0.7-0.9,1.6-0.9,2.7c0,3.2,1.1,5.5,3.2,6.9c2.1,1.4,4.8,2.1,8,2.1c2.8,0,5.2-0.6,7.3-1.7
		c2.1-1.1,3.8-2.6,5.1-4.3c1.4-1.7,2.4-3.6,3-5.6c0.7-2,1-3.9,1-5.7l-1.5,0.1c-2.4,0-4.5-0.5-6.2-1.6c-1.8-1.1-3.2-2.5-4.4-4.1
		c-1.2-1.7-2-3.4-2.6-5.4c-0.6-1.9-0.8-3.7-0.8-5.4v-3.5c0-1.3,0.2-2.7,0.5-4.4c0.3-1.7,0.8-3.4,1.4-5.3c0.6-1.8,1.3-3.6,2.2-5.4
		c0.9-1.8,1.8-3.3,2.8-4.7c1-1.4,2.1-2.5,3.2-3.4c1.1-0.9,2.3-1.3,3.5-1.3c0.5,0,1,0.1,1.6,0.3l7,0.5c0.5,0.1,0.9,0.2,1.3,0.5
		C513,316,513.2,316.4,513.2,317.1z M504.6,329.1c0.1-0.5,0.3-1,0.4-1.5c0.1-0.5,0.2-1,0.2-1.6c0-0.9-0.2-1.6-0.6-2.3
		c-0.4-0.7-1.2-1-2.3-1c-1.5,0-2.7,0.6-3.6,1.8c-0.9,1.2-1.6,2.6-2.1,4.3c-0.5,1.7-0.8,3.4-1,5.2s-0.3,3.3-0.3,4.4
		c0,0.9,0.1,2.1,0.2,3.7c0.1,1.6,0.4,3.2,0.9,4.8c0.5,1.6,1.2,3,2.1,4.2s2.1,1.8,3.6,1.8c0.1,0,0.5,0,1.1-0.1
		c0.6-0.1,1.1-0.2,1.4-0.3V329.1z"/>
	<path d="M536,354.9c-1,1.4-1.8,2.9-2.4,4.6c-0.6,1.7-1.2,3.5-1.6,5.3c-0.5,1.8-0.8,3.6-1.1,5.5c-0.3,1.8-0.6,3.6-0.9,5.2
		c-0.1,0.4-0.6,0.7-1.5,0.8c-0.9,0.1-1.5,0.2-1.9,0.2c-1.2,0-2.2-0.1-2.9-0.2c-0.8-0.1-1.3-0.4-1.7-0.9c-0.4-0.5-0.7-1.3-0.9-2.3
		c-0.2-1-0.4-2.4-0.5-4.1l1.3-29.6c0-0.9,0.5-1.3,1.4-1.3c0.3,0,0.8,0,1.4,0.1c0.6,0.1,1.2,0.2,1.9,0.4c0.7,0.2,1.2,0.4,1.7,0.7
		c0.5,0.3,0.7,0.6,0.7,1v20.2c0.1-0.1,0.2-0.3,0.3-0.8c0.5-1.2,1-2.7,1.7-4.4c0.7-1.8,1.4-3.4,2.2-5c0.8-1.6,1.6-3,2.5-4.1
		c0.9-1.1,1.8-1.7,2.7-1.7c1.2,0,2.1,0.3,2.7,0.8c0.6,0.6,1.1,1.3,1.4,2.1c0.3,0.9,0.5,1.8,0.6,2.8c0.1,1,0.1,2,0.1,2.9
		c0,0.7-0.1,1.8-0.2,3.3c-0.1,1.5-0.2,3.8-0.2,6.9c0,1.7,0.2,3.3,0.5,4.7c0.3,1.4,1,2.1,2,2.1c0.7,0,1.4-0.3,2-1
		c0.6-0.7,1.1-1.5,1.6-2.5c0.5-1,0.9-2.1,1.2-3.2c0.3-1.1,0.5-2.2,0.6-3.2c0.1-1.3,0.6-1.9,1.5-1.9c0.6,0,1,0.2,1.2,0.6
		c0.2,0.4,0.3,0.9,0.3,1.4v0.2c-0.1,1.3-0.3,2.8-0.7,4.5c-0.4,1.7-1.1,3.2-1.9,4.7c-0.8,1.5-1.9,2.7-3.2,3.7c-1.3,1-3,1.5-4.9,1.5
		c-3,0-4.9-1.1-5.7-3.2c-0.8-2.2-1.2-5.4-1.2-9.6L536,354.9z"/>
	<path d="M574.8,370.5c0,1.6-0.5,2.8-1.6,3.7c-1.1,0.9-2.3,1.5-3.6,1.9c-1.4,0.4-2.7,0.6-4.1,0.7c-1.4,0.1-2.3,0.1-2.9,0.1
		c-0.9,0-2.1-0.1-3.4-0.3c-1.4-0.2-2.7-0.5-4-0.9c-1.3-0.4-2.4-1-3.3-1.8c-0.9-0.8-1.3-1.8-1.3-3c0-0.7,0.3-1.2,0.8-1.5
		c0.6-0.3,1.1-0.4,1.6-0.4c0.7,0,1.4,0.3,2.1,0.8c0.7,0.5,1.4,1.1,2.2,1.7c0.8,0.6,1.6,1.2,2.5,1.7c0.9,0.5,2,0.8,3.2,0.8
		c0.5,0,1.2-0.2,2.1-0.5c0.9-0.4,1.3-1,1.3-1.9c0-0.9-0.4-1.8-1.1-2.7c-0.8-0.9-1.7-1.8-2.9-2.7c-1.2-0.9-2.4-1.9-3.7-2.9
		s-2.6-2.1-3.7-3.2c-1.2-1.2-2.1-2.4-2.9-3.8c-0.8-1.4-1.1-2.9-1.1-4.6c0-2.3,0.7-4.3,2.2-5.9c1.5-1.6,3.2-2.9,5.3-3.8
		c2-0.9,4.1-1.6,6.2-2c2.1-0.4,3.8-0.6,5-0.6c1.1,0,2.3,0.2,3.4,0.7c1.1,0.5,1.7,1.4,1.7,2.7c0,0.4-0.1,1-0.2,1.7
		c-0.2,0.8-0.4,1.5-0.8,2.2c-0.4,0.7-0.8,1.4-1.4,1.9c-0.6,0.6-1.4,0.8-2.3,0.8c-0.3,0-0.5-0.1-0.8-0.3c-0.3-0.2-0.6-0.5-0.9-0.8
		c-0.3-0.3-0.7-0.6-1-0.8c-0.4-0.2-0.8-0.3-1.2-0.3c-2.3,0-3.9,0.7-4.9,2c-0.9,1.4-1.4,2.8-1.4,4.3c0,1.3,0.8,2.7,2.3,4.2
		c1.6,1.5,3.3,2.9,5.2,4.4c1.9,1.5,3.6,2.9,5.2,4.3C574,367.7,574.8,369.1,574.8,370.5z"/>
	<path d="M577,358.6c0.1-3.4,0.2-6.8,0.3-10.3c0.1-3.5,0.3-6.8,0.4-9.8c0-0.5-0.5-0.9-1.6-1.1c-1.1-0.2-2.3-0.4-3.6-0.6
		c-1.3-0.2-2.5-0.5-3.6-0.9c-1.1-0.4-1.6-1.1-1.6-2.1c0-0.9,0.9-1.4,2.6-1.5c1.7-0.1,4.3-0.2,7.7-0.2c0.3,0,0.4-0.4,0.5-1.2
		s0.2-1.8,0.2-3c0-1.2,0.1-2.5,0.1-3.9c0-1.4,0.1-2.7,0.1-3.9c0.1-1.2,0.2-2.2,0.3-3c0.2-0.8,0.4-1.2,0.6-1.2c0.3,0,0.9,0.1,1.8,0.2
		c0.9,0.1,1.8,0.3,2.7,0.5c0.9,0.2,1.7,0.5,2.4,0.8c0.7,0.3,1,0.7,1,1.1l-1.1,12.9c0,0.4,0.3,0.7,1,0.8c0.7,0.2,1.6,0.3,2.7,0.3
		c1.1,0,2.3,0,3.5,0c1.2,0,2.4,0.1,3.5,0.3s2,0.5,2.7,0.9c0.7,0.4,1,1.1,1,1.9c0,0.1-0.1,0.3-0.2,0.6c-0.1,0.3-0.3,0.4-0.5,0.4
		c-0.1,0-0.3-0.1-0.5-0.3c-0.2-0.2-0.8-0.3-1.8-0.3c-0.3,0-1,0-2.2,0.1c-1.2,0.1-2.5,0.2-3.8,0.3c-1.3,0.1-2.5,0.3-3.6,0.4
		c-1.1,0.2-1.7,0.4-1.8,0.6c-0.1,0.1-0.1,0.9-0.2,2.3c-0.1,1.4-0.2,3.3-0.3,5.6c-0.1,2.3-0.2,5-0.2,8c-0.1,3-0.1,6.2-0.1,9.5
		c0,1.3,0.1,2.5,0.2,3.7c0.1,1.2,0.3,2.3,0.6,3.2c0.3,1,0.6,1.7,1,2.3c0.4,0.6,0.9,0.9,1.5,0.9c0.9,0,1.7-0.4,2.4-1.1
		c0.7-0.7,1.4-1.7,2-3c0.6-1.3,1.1-2.7,1.6-4.3c0.5-1.6,0.9-3.2,1.2-4.9c0.2-1,0.4-1.7,0.7-2.1c0.3-0.4,0.7-0.6,1.2-0.6
		c0.5,0,0.9,0.1,1.2,0.4c0.4,0.3,0.5,1,0.5,2c0,0.7,0,1.1-0.1,1.3c-0.2,1.2-0.6,2.8-1.1,4.9s-1.3,4.1-2.3,6.2c-1,2-2.1,3.8-3.5,5.3
		c-1.4,1.5-3,2.3-4.9,2.3c-1.8,0-3.4-0.5-4.7-1.5c-1.3-1-2.4-2.5-3.3-4.3c-0.9-1.8-1.6-4-2-6.5c-0.5-2.5-0.7-5.2-0.7-8V358.6z"/>
	<path d="M636,365.8c-0.1,0.9-0.5,2-1,3.3c-0.5,1.3-1.2,2.5-2,3.6c-0.8,1.2-1.8,2.1-2.9,2.9s-2.3,1.2-3.6,1.2c-2,0-3.7-0.8-5.2-2.3
		c-1.5-1.5-2.4-3.7-2.7-6.5c-0.4,1.1-0.9,2.3-1.4,3.7c-0.5,1.4-1.2,2.7-2,3.9c-0.8,1.2-1.7,2.2-2.7,3c-1,0.8-2.2,1.2-3.6,1.2
		c-0.4,0-0.7,0-0.9-0.1c-0.2-0.1-0.4-0.1-0.6-0.2s-0.5-0.2-0.8-0.2c-0.3-0.1-0.7-0.1-1.2-0.1c-1.6,0-2.9-0.5-4-1.5
		c-1.1-1-2-2.3-2.6-3.9c-0.7-1.6-1.1-3.3-1.4-5.2c-0.3-1.9-0.4-3.7-0.4-5.3c0-4,0.2-7.8,0.6-11.3c0.4-3.6,1.1-6.8,2.1-9.5
		c1-2.8,2.3-4.9,3.9-6.6c1.6-1.6,3.5-2.4,5.8-2.4c1.3,0,2.3,0.1,3,0.3c0.7,0.2,1.3,0.5,1.9,0.8c0.6,0.3,1.2,0.6,1.9,0.9
		c0.7,0.3,1.7,0.6,2.9,0.8c1.4,0.8,2.4,1.7,2.9,2.8c0.6,1.1,0.9,2.3,1.1,3.5c0.2,1.3,0.2,2.6,0.1,3.9c-0.1,1.4,0,2.7,0.2,4
		c0,0.1,0.1,0.2,0.4,0.3c0.3,0.1,0.6,0.3,1,0.4c0.4,0.2,0.7,0.4,1,0.7c0.3,0.3,0.4,0.7,0.4,1.1v0.4c-0.7,1.7-1.1,3.3-1.2,4.6
		s-0.2,2.9-0.2,4.8c0,0.9,0,1.9,0.1,3c0.1,1.1,0.3,2.1,0.5,3.1c0.2,1,0.6,1.8,1,2.4c0.5,0.6,1.1,0.9,1.8,0.9c0.8,0,1.5-0.4,2.1-1.2
		c0.6-0.8,1.2-1.7,1.6-2.7c0.4-1,0.8-2.1,1.1-3.1c0.3-1.1,0.5-1.9,0.5-2.4c0.1-0.8,0.5-1.2,1-1.2c0.3,0,0.6,0.2,0.9,0.5
		c0.3,0.4,0.4,1,0.4,1.9c0,0.3,0,0.5,0,0.7C636.1,365.2,636.1,365.4,636,365.8z M617.6,349.7c0-0.7-0.1-1.6-0.2-2.6
		c-0.1-1-0.4-1.9-0.7-2.8c-0.3-0.9-0.8-1.6-1.5-2.2c-0.7-0.6-1.6-0.9-2.7-0.9c-1.9,0-3.4,0.8-4.5,2.5c-1.2,1.7-2.1,3.7-2.7,6
		c-0.7,2.3-1.1,4.6-1.3,7.1c-0.2,2.4-0.3,4.3-0.3,5.7c0,1.1,0,2.3,0.1,3.8c0.1,1.5,0.3,2.9,0.5,4.2c0.3,1.3,0.6,2.5,1.1,3.4
		c0.5,0.9,1.1,1.4,1.9,1.4c1.9,0,3.4-0.7,4.4-2.2c1-1.5,1.8-3.3,2.3-5.6c0.5-2.2,0.9-4.6,1.1-7.2c0.2-2.6,0.4-4.9,0.6-7
		c0.1-1.1,0.4-1.8,0.9-2.1c0.5-0.3,0.7-0.5,0.7-0.6V349.7z"/>
	<path d="M666.1,379.2c0,0.7-0.3,1.1-0.9,1.4c-0.6,0.3-1.2,0.4-1.7,0.4l-2-0.2c-0.3,0-0.5,0.2-0.5,0.6l-0.1,1.2
		c0.1,1.8,0.1,4,0.1,6.8c0,2.7,0,5.3,0,7.9c0,2.7-0.1,5.3-0.2,7.8c-0.2,2.6-0.5,4.8-1.1,6.9c-0.6,2-1.4,3.6-2.5,4.9
		c-1.1,1.2-2.6,1.8-4.5,1.8c-1.7,0-3.4-0.1-5.2-0.2c-1.8-0.2-3.5-0.6-5-1.2c-1.5-0.7-2.7-1.6-3.7-2.9c-1-1.3-1.4-3-1.4-5.2
		c0-2.2,0.3-4.4,0.8-6.7c0.5-2.3,1.2-4.5,2.2-6.7c0.9-2.2,2.1-4.2,3.4-6.2c1.3-2,2.7-3.7,4.3-5.2c0.8-0.8,1.7-1.6,2.7-2.4
		c1-0.8,1.8-1.5,2.6-2v-0.1c0.1-1.4,0.2-2.8,0.3-4.2c0.1-1.4,0.1-2.8,0.1-4.3c-0.3,0.6-0.7,1.4-1.2,2.4c-0.5,1-1,2-1.6,2.9
		c-0.6,0.9-1.4,1.7-2.2,2.4c-0.8,0.7-1.7,1-2.7,1c-0.5,0-1-0.1-1.4-0.3c-0.4-0.2-1-0.3-1.7-0.3c-1.9-0.1-3.4-0.6-4.7-1.5
		c-1.2-0.9-2.2-2.1-2.9-3.6c-0.7-1.5-1.2-3.3-1.5-5.4s-0.4-4.4-0.4-7c0-3.1,0.2-6.3,0.5-9.7c0.4-3.3,1-6.4,1.9-9.1
		c0.9-2.8,2.2-5,3.7-6.8c1.6-1.8,3.5-2.6,5.9-2.6c0.3,0,0.6,0.1,1,0.3c0.4,0.2,0.9,0.4,1.4,0.6c0.5,0.2,1,0.5,1.5,0.7
		c0.5,0.2,0.9,0.4,1.1,0.4c1.3,0.3,2.6,0.6,3.7,1c1.1,0.4,2.1,0.9,2.9,1.5c0.8,0.6,1.4,1.5,1.9,2.5c0.5,1,0.7,2.3,0.7,3.8
		c0,1.1-0.1,2-0.2,2.9c-0.2,0.9-0.2,2-0.2,3.3c0,0.5,0.2,0.9,0.6,1.1c0.4,0.2,0.8,0.4,1.3,0.5c0.5,0.1,0.9,0.3,1.3,0.4
		c0.4,0.2,0.6,0.5,0.6,1c0,0.1-0.1,0.4-0.4,0.9c-0.3,0.5-0.5,0.8-0.5,0.9c-0.2,0.5-0.4,1.4-0.5,2.5c-0.1,1.2-0.2,2.4-0.3,3.8
		c-0.1,1.4-0.1,2.8-0.1,4.2c0,1.4,0,2.7,0,3.8c0,0.9,0,2,0,3.4c0,1.4,0,2.6,0.1,3.5h0.4c0.1,0,0.3,0,0.4,0c0.1,0,0.2,0,0.3,0
		c0.6,0,1.4,0.2,2.4,0.5C665.5,377.9,666.1,378.5,666.1,379.2z M653.4,348.5c0-0.7-0.1-1.6-0.2-2.5c-0.1-0.9-0.4-1.8-0.7-2.6
		c-0.3-0.8-0.8-1.5-1.5-2.1c-0.6-0.6-1.4-0.8-2.4-0.8c-1.3,0-2.5,0.5-3.6,1.5c-1.1,1-2.1,2.4-2.9,4.2c-0.8,1.8-1.5,4-2,6.7
		c-0.5,2.6-0.8,5.6-0.8,8.9c0,1.4,0,2.8,0.1,4.3c0.1,1.5,0.3,2.8,0.5,4c0.2,1.2,0.6,2.2,1.1,3c0.5,0.8,1.1,1.2,1.9,1.2
		c1.4,0,2.6-0.6,3.7-1.8c1.1-1.2,1.9-2.7,2.6-4.4s1.2-3.6,1.6-5.5c0.4-1.9,0.6-3.5,0.6-4.9c0.1-1.9,0.2-3.2,0.3-3.9s0.3-1.1,0.4-1.3
		c0.4-0.5,0.7-1.2,0.8-1.9C653.4,349.7,653.4,349.1,653.4,348.5z M653,383c-1.5,1.1-3,2.6-4.4,4.5c-1.4,1.9-2.6,4-3.6,6.3
		c-1,2.3-1.8,4.5-2.4,6.9c-0.6,2.3-0.9,4.4-0.9,6.3c0,0.7,0.1,1.4,0.2,2.2c0.1,0.8,0.4,1.5,0.7,2.2c0.3,0.7,0.7,1.3,1.3,1.7
		c0.6,0.5,1.3,0.7,2.1,0.7c1.4,0,2.6-0.6,3.5-1.7c0.9-1.2,1.6-2.5,2.1-4.1c0.5-1.6,0.8-3.2,1-4.9c0.2-1.7,0.3-3,0.3-4
		c0-0.2,0-0.5,0-0.9c0-0.4,0-1.2,0-2.3c0-1.1,0-2.7,0-4.7C653,389.1,653,386.4,653,383z"/>
	<path d="M695.8,362.6c0,0.5-0.1,1.6-0.4,3.3c-0.3,1.8-0.8,3.6-1.6,5.6c-0.8,2-1.8,3.7-3.1,5.2c-1.3,1.5-2.9,2.3-4.9,2.3
		c-2.1,0-3.8-0.7-5.1-2.2c-1.3-1.5-2.2-3.3-2.9-5.4c-0.7-2.1-1.1-4.3-1.3-6.6s-0.3-4.2-0.3-5.7c0-1.7,0.1-3.5,0.3-5.2
		c0.2-1.8,0.3-3.5,0.4-5.2c0-0.5-0.3-0.9-0.8-1c-0.5-0.1-1-0.2-1.5-0.2c-0.8,0-1.3,0.1-1.5,0.3c-0.2,0.2-0.3,0.4-0.4,0.7l-0.4,3.2
		c-0.3,2.1-0.5,4.2-0.8,6.1c-0.3,2-0.6,3.7-1,5.2c-0.4,1.5-0.8,2.7-1.3,3.6c-0.5,0.9-1.1,1.3-1.7,1.3h-0.1c-0.3,0-0.5-0.1-0.7-0.2
		c-0.2-0.1-0.3-0.5-0.3-1c0-0.3,0.1-0.7,0.2-1.2c0.5-2.3,0.9-4.2,1-5.8c0.1-1.5,0.2-2.9,0.3-4.1v-0.7c0-0.3,0-0.7,0-1.2
		c0-0.5,0-1,0-1.7v-2.6c0-0.7,0-1.5,0-2.3c0-0.8-0.1-1.7-0.2-2.6l-0.3-5.9c0-0.4,0.2-0.8,0.5-1.1c0.3-0.3,0.8-0.6,1.3-0.9
		c0.5-0.3,1.1-0.5,1.7-0.6c0.6-0.1,1.1-0.2,1.6-0.2c1.1,0,1.7,0.7,1.7,2.2v0.5l-0.1,2.2v0.6c0,0.5,0.1,0.7,0.3,0.8
		c0.2,0.1,0.6,0.2,1.2,0.3h0.3c0.5,0.1,1.4,0.1,2.6,0.2c1.2,0.1,2.4,0.2,3.6,0.4c1.2,0.2,2.2,0.5,3.1,0.9c0.9,0.4,1.3,1,1.3,1.8
		c0,0.3-0.1,0.6-0.2,1.1c-0.1,0.5-0.3,1-0.5,1.5c-0.2,0.5-0.4,0.9-0.5,1.3c-0.1,0.4-0.2,0.7-0.2,0.8c-1.2,4.6-1.8,9.4-1.8,14.3
		c0,0.4,0,1.1,0.1,2.2c0.1,1.1,0.2,2.2,0.4,3.3c0.2,1.1,0.5,2.1,0.9,3c0.4,0.9,0.9,1.3,1.5,1.3c1,0,1.9-0.6,2.7-1.8
		c0.8-1.2,1.5-2.7,2.1-4.3c0.6-1.6,1.1-3.3,1.4-4.9c0.4-1.7,0.6-2.9,0.7-3.7c0.1-0.7,0.3-1.2,0.6-1.3c0.3-0.2,0.6-0.2,0.8-0.2
		c0.9,0,1.4,0.6,1.4,1.8c0,0.1,0,0.5,0,1C695.9,361.9,695.9,362.3,695.8,362.6z"/>
	<path d="M732.3,365.8c-0.1,0.9-0.5,2-1,3.3c-0.5,1.3-1.2,2.5-2,3.6c-0.8,1.2-1.8,2.1-2.9,2.9s-2.3,1.2-3.6,1.2
		c-2,0-3.7-0.8-5.2-2.3c-1.5-1.5-2.4-3.7-2.7-6.5c-0.4,1.1-0.9,2.3-1.4,3.7c-0.5,1.4-1.2,2.7-2,3.9s-1.7,2.2-2.7,3
		c-1,0.8-2.2,1.2-3.6,1.2c-0.4,0-0.7,0-0.9-0.1c-0.2-0.1-0.4-0.1-0.6-0.2c-0.2-0.1-0.5-0.2-0.8-0.2c-0.3-0.1-0.7-0.1-1.2-0.1
		c-1.6,0-2.9-0.5-4-1.5c-1.1-1-2-2.3-2.6-3.9c-0.7-1.6-1.1-3.3-1.4-5.2c-0.3-1.9-0.4-3.7-0.4-5.3c0-4,0.2-7.8,0.6-11.3
		c0.4-3.6,1.1-6.8,2.1-9.5c1-2.8,2.3-4.9,3.9-6.6c1.6-1.6,3.5-2.4,5.8-2.4c1.3,0,2.3,0.1,3,0.3c0.7,0.2,1.3,0.5,1.9,0.8
		c0.6,0.3,1.2,0.6,1.9,0.9c0.7,0.3,1.7,0.6,2.9,0.8c1.4,0.8,2.4,1.7,2.9,2.8c0.6,1.1,0.9,2.3,1.1,3.5c0.2,1.3,0.2,2.6,0.1,3.9
		c-0.1,1.4,0,2.7,0.2,4c0,0.1,0.1,0.2,0.4,0.3c0.3,0.1,0.6,0.3,1,0.4c0.4,0.2,0.7,0.4,1,0.7c0.3,0.3,0.4,0.7,0.4,1.1v0.4
		c-0.7,1.7-1.1,3.3-1.2,4.6c-0.1,1.3-0.2,2.9-0.2,4.8c0,0.9,0,1.9,0.1,3s0.3,2.1,0.5,3.1c0.2,1,0.6,1.8,1,2.4
		c0.5,0.6,1.1,0.9,1.8,0.9c0.8,0,1.5-0.4,2.1-1.2c0.6-0.8,1.2-1.7,1.6-2.7c0.4-1,0.8-2.1,1.1-3.1c0.3-1.1,0.5-1.9,0.5-2.4
		c0.1-0.8,0.5-1.2,1-1.2c0.3,0,0.6,0.2,0.9,0.5c0.3,0.4,0.4,1,0.4,1.9c0,0.3,0,0.5,0,0.7C732.4,365.2,732.4,365.4,732.3,365.8z
		 M713.9,349.7c0-0.7-0.1-1.6-0.2-2.6c-0.1-1-0.4-1.9-0.7-2.8c-0.3-0.9-0.8-1.6-1.5-2.2c-0.7-0.6-1.6-0.9-2.7-0.9
		c-1.9,0-3.4,0.8-4.5,2.5c-1.2,1.7-2.1,3.7-2.7,6c-0.7,2.3-1.1,4.6-1.3,7.1c-0.2,2.4-0.3,4.3-0.3,5.7c0,1.1,0,2.3,0.1,3.8
		c0.1,1.5,0.3,2.9,0.5,4.2c0.3,1.3,0.6,2.5,1.1,3.4c0.5,0.9,1.1,1.4,1.9,1.4c1.9,0,3.4-0.7,4.4-2.2c1-1.5,1.8-3.3,2.3-5.6
		c0.5-2.2,0.9-4.6,1.1-7.2c0.2-2.6,0.4-4.9,0.6-7c0.1-1.1,0.4-1.8,0.9-2.1c0.5-0.3,0.7-0.5,0.7-0.6V349.7z"/>
	<path d="M762.8,352.1c-0.9,1.8-1.8,3.7-2.6,5.7c-0.8,2-1.4,3.5-1.8,4.7c-0.1,0.3-0.2,1-0.5,2.1c-0.3,1.1-0.6,2.2-1,3.5
		c-0.4,1.3-0.7,2.6-0.9,3.8c-0.3,1.3-0.4,2.3-0.4,3.1c0,0.3-0.3,0.6-0.9,0.9c-0.6,0.3-1.4,0.4-2.3,0.4c-1.5,0-2.6-0.2-3.5-0.6
		c-0.9-0.4-1.5-1-1.9-1.9c-0.4-0.9-0.7-2.1-0.8-3.5c-0.1-1.5-0.1-3.2-0.1-5.3v-7.5c0-0.5,0-1.1,0-1.6c0-0.5-0.1-0.9-0.3-1
		c-0.3,0.1-0.7,1-1.2,2.6c-0.5,1.6-1,3.5-1.4,5.8c-0.4,2.3-0.8,4.7-1.1,7.2c-0.3,2.5-0.5,4.8-0.5,6.8c0,0.7-0.4,1.2-1.1,1.3
		c-0.8,0.1-1.6,0.2-2.5,0.2c-0.3,0-0.7,0-1.3-0.1c-0.6-0.1-1.3-0.2-1.9-0.3c-0.6-0.1-1.2-0.3-1.7-0.5c-0.5-0.2-0.9-0.5-1-0.8
		c-0.3-0.9-0.6-2.3-0.7-4.3c-0.2-2-0.2-5.1-0.2-9.3c0-2.5,0-5.3,0.1-8.6c0.1-3.2,0.2-7.1,0.3-11.4c0-0.6,0-1.4-0.1-2.3
		c-0.1-1-0.1-1.5-0.1-1.6c0-0.5,0.2-0.8,0.6-0.9c0.4-0.1,0.7-0.1,0.9-0.1c0.5,0,1,0,1.6,0.1c0.6,0.1,1.3,0.2,1.9,0.3
		c0.6,0.1,1.2,0.3,1.7,0.4c0.5,0.2,0.9,0.3,1.1,0.4v24c0.3-1.3,0.7-2.9,1.1-4.6c0.4-1.8,0.9-3.5,1.5-5.2c0.6-1.7,1.2-3.3,1.8-4.8
		c0.7-1.5,1.4-2.5,2.1-3.2c0.3-0.2,0.8-0.3,1.5-0.4c0.7-0.1,1.3-0.1,1.8-0.1c0.3,0,0.7,0,1.2,0.1c0.5,0.1,1,0.2,1.4,0.4
		c0.5,0.2,0.9,0.4,1.2,0.7c0.4,0.3,0.6,0.6,0.6,1v16.1v0.9c0,0.4,0.1,0.6,0.2,0.6c0.1,0,0.5-0.9,1.1-2.7c0.6-1.8,1.4-3.9,2.2-6.4
		c0.9-2.5,1.8-5,2.8-7.6c1-2.6,1.9-4.6,2.7-6.2c0.1-0.3,0.6-0.4,1.3-0.4c0.8,0,1.4,0,2,0c0.5,0,1.1,0.1,1.9,0.4
		c0.8,0.3,1.6,0.7,2.3,1.2c0.8,0.5,1.4,1.1,2,1.8c0.6,0.7,0.8,1.4,0.8,2.1c0,0.1-0.2,0.5-0.6,1.1c-0.4,0.6-0.7,1.3-0.8,1.9
		c-0.5,1.9-0.8,3.7-0.9,5.5c-0.2,1.8-0.2,4.1-0.2,6.9c0,1.2,0,2.4,0.1,3.6s0.3,2.3,0.5,3.2c0.2,1,0.5,1.7,0.9,2.3
		c0.4,0.6,0.9,0.9,1.6,0.9c0.9,0,1.8-0.3,2.5-0.9c0.7-0.6,1.4-1.5,1.9-2.5c0.5-1.1,1-2.3,1.4-3.7c0.4-1.4,0.7-2.9,1-4.4
		c0.3-1.6,0.9-2.4,1.8-2.4c0.5,0,0.9,0.1,1,0.4c0.2,0.3,0.2,0.9,0.2,1.8c0,0.5,0,0.9-0.1,1.1c-0.1,0.9-0.3,2.2-0.8,4
		c-0.5,1.8-1.2,3.6-2.1,5.5c-0.9,1.8-2,3.4-3.3,4.8c-1.3,1.4-2.9,2-4.6,2c-2,0-3.7-0.5-5-1.4c-1.3-1-2.3-2.3-3-3.9
		c-0.7-1.6-1.2-3.5-1.5-5.6c-0.3-2.1-0.4-4.3-0.4-6.7v-0.7L762.8,352.1z"/>
</g>
<g id="message">
	<g>
		<path class="st3" d="M241.7,307.7c-0.2,0-0.3,0-0.5,0c-1.1-0.2-2-1-2.3-2.2l-11-52.5l58.6-34.6c1.1-0.7,2.4-0.6,3.5,0.2
			c1.1,0.8,1.5,2.3,1,3.6l-0.1,0.3l-46.6,84C243.6,307.2,242.7,307.7,241.7,307.7z M233.5,255.4l9.1,43.5l40.3-72.7L233.5,255.4z"/>
	</g>
	<g>
		<path class="st3" d="M230.4,257.3l-40.6-34.8c-0.9-0.7-1.3-1.9-1-3.1c0.4-1.3,1.5-2.1,2.8-2.1l95.9-0.3c1.2,0,2.4,0.8,2.8,2
			c0.4,1.3,0,2.7-1.1,3.5l-0.2,0.2L230.4,257.3z M197.3,222.3l33.7,28.9l49.3-29.1L197.3,222.3z M191.7,222.3L191.7,222.3
			C191.7,222.3,191.7,222.3,191.7,222.3z"/>
	</g>
	<g>
		<path class="st3" d="M287.4,224.4c-2,0-3.7-1.7-3.7-3.7c0-2,1.7-3.7,3.7-3.7c2,0,3.7,1.7,3.7,3.7
			C291.1,222.7,289.4,224.4,287.4,224.4z M287.4,219.4c-0.7,0-1.3,0.6-1.3,1.3s0.6,1.3,1.3,1.3s1.3-0.6,1.3-1.3
			S288.1,219.4,287.4,219.4z"/>
	</g>
</g>
</svg>
